<svg width="37" height="59" viewBox="0 0 37 59" fill="none" xmlns="http://www.w3.org/2000/svg">
<g clip-path="url(#clip0_209_657)">
<path fill-rule="evenodd" clip-rule="evenodd" d="M10.4421 29.4484C8.05779 29.6377 3.237 29.6549 0.783092 29.5344C0.652673 29.528 0.525814 29.4902 0.413576 29.4242C0.301338 29.3582 0.207129 29.266 0.13916 29.1558C0.7614 30.1665 1.47808 31.1172 2.2798 31.9956C2.86457 32.7629 3.53606 33.4616 4.28121 34.0782C5.34283 34.0782 6.85694 34.1642 8.42326 34.1642C9.0846 32.5464 9.78074 30.9629 10.4595 29.4484H10.4421Z" fill="url(#paint0_radial_209_657)"/>
<path fill-rule="evenodd" clip-rule="evenodd" d="M33.0669 1.72115C29.708 7.0222 25.4963 13.3043 21.8416 18.5881C23.7559 18.5021 26.2447 18.4504 28.5419 18.4332C31.2917 14.3714 34.1459 10.0686 36.5476 6.26491C36.6022 6.13992 36.6303 6.0052 36.6303 5.86905C36.6303 5.7329 36.6022 5.59818 36.5476 5.47319C35.4648 3.80292 34.2423 2.22544 32.8928 0.757324H33.0669C33.1714 0.896722 33.2279 1.06568 33.2279 1.23924C33.2279 1.4128 33.1714 1.58175 33.0669 1.72115Z" fill="url(#paint1_radial_209_657)"/>
<path fill-rule="evenodd" clip-rule="evenodd" d="M33.3625 19.8962C24.8108 30.8617 15.642 41.3426 5.89969 51.2894C4.57702 52.6319 2.41897 54.7317 1.86206 54.4219C2.0535 54.8005 4.82067 58.4321 5.34278 58.9484C5.79527 59.2066 8.05773 57.2273 9.3804 55.8332C19.1223 45.886 28.291 35.405 36.8432 24.44C36.9134 24.3071 36.95 24.1595 36.95 24.0097C36.95 23.8598 36.9134 23.7122 36.8432 23.5794C36.8432 23.4073 36.8432 23.4761 36.8432 23.4245C36.443 22.8049 34.0935 19.7069 33.3625 18.9668C33.4464 19.095 33.4911 19.2444 33.4911 19.3971C33.4911 19.5498 33.4464 19.6992 33.3625 19.8274V19.8962Z" fill="url(#paint2_radial_209_657)"/>
<path style="mix-blend-mode:multiply" opacity="0.5" fill-rule="evenodd" clip-rule="evenodd" d="M32.9274 1.99641C33.8106 2.7148 34.4636 3.67153 34.807 4.7502C35.2769 8.2785 31.8484 12.9255 29.9688 15.5244C29.5589 16.2547 29.0062 16.8971 28.3429 17.4142C27.6796 17.9313 26.919 18.3127 26.1052 18.5364H28.4721C31.2219 14.4745 34.0761 10.1717 36.4778 6.36806C36.5324 6.24306 36.5605 6.10835 36.5605 5.9722C36.5605 5.83604 36.5324 5.70133 36.4778 5.57634C35.4276 3.87468 34.2279 2.26783 32.8926 0.774414H33.0667C33.1672 0.912207 33.2213 1.07781 33.2213 1.24772C33.2213 1.41764 33.1672 1.58324 33.0667 1.72103L32.9274 1.92756V1.99641Z" fill="url(#paint3_radial_209_657)"/>
<path style="mix-blend-mode:multiply" opacity="0.5" fill-rule="evenodd" clip-rule="evenodd" d="M36.8434 23.4245C36.5475 22.891 34.8071 20.5502 33.7977 19.4143C35.6773 23.304 35.6773 24.6981 33.119 28.0199C29.9515 32.2367 26.6971 36.3846 23.286 40.3948C20.1533 44.078 16.8989 47.6407 13.5052 51.0485C11.9609 52.5793 10.2837 53.973 8.49294 55.2136C7.71588 55.8437 6.76841 56.2336 5.76873 56.3346C4.76905 56.4356 3.76143 56.2433 2.87158 55.7816C3.77657 56.9864 4.94261 58.5009 5.25587 58.8107C5.70836 59.0689 7.97083 57.0896 9.2935 55.6955C19.0611 45.7952 28.2589 35.3602 36.8434 24.44C36.9135 24.3072 36.9501 24.1595 36.9501 24.0097C36.9501 23.8599 36.9135 23.7122 36.8434 23.5794C36.8434 23.4073 36.8434 23.4762 36.8434 23.4245Z" fill="url(#paint4_radial_209_657)"/>
<path style="mix-blend-mode:screen" d="M7.77945 57.3822C7.77794 57.383 7.77642 57.3838 7.77491 57.3845C6.7204 58.3227 5.65418 59.1193 5.36035 58.9484C4.83825 58.4321 2.07108 54.8005 1.87964 54.4219C2.1755 54.6284 3.18491 53.8195 4.22912 52.9073C4.11507 53.1408 4.05583 53.3967 4.05583 53.656C4.05583 53.9153 4.11507 54.1712 4.22912 54.4047V54.5423C4.95804 55.594 5.76674 56.5894 6.64822 57.5199C6.89095 57.7085 7.37549 57.5896 7.77491 57.3845C7.78222 57.378 7.78955 57.3715 7.79685 57.365L7.77945 57.3822Z" fill="url(#paint5_radial_209_657)"/>
<path fill-rule="evenodd" clip-rule="evenodd" d="M14.8278 0.602364C20.665 -0.170223 26.5782 -0.199144 32.4228 0.516308C32.562 0.537765 32.6937 0.593012 32.8061 0.677109C32.9185 0.761206 33.008 0.871532 33.0667 0.998222C33.1234 1.11046 33.1529 1.2342 33.1529 1.35966C33.1529 1.48511 33.1234 1.60885 33.0667 1.72109C29.7079 7.02214 25.4962 13.3042 21.8414 18.5881C25.0959 18.4332 30.0559 18.3815 32.7883 18.4848C32.9439 18.4881 33.0953 18.5351 33.2247 18.6205C33.3542 18.7058 33.4564 18.826 33.5192 18.9667C33.6031 19.0949 33.6478 19.2443 33.6478 19.397C33.6478 19.5497 33.6031 19.6991 33.5192 19.8273C24.9189 30.8204 15.6977 41.3245 5.89976 51.2894C4.57709 52.6318 2.41905 54.7316 1.86213 54.4218C1.30522 54.112 2.08838 51.7541 2.38424 50.5493C4.61765 43.3547 7.30897 36.3069 10.4421 29.4483C8.05781 29.6377 3.23702 29.6549 0.783111 29.5344C0.652692 29.528 0.525833 29.4902 0.413595 29.4242C0.301357 29.3582 0.207147 29.266 0.139179 29.1558C0.0571755 29.0561 0.00151524 28.9379 -0.0227893 28.8117C-0.0470938 28.6855 -0.0392793 28.5553 -4.95426e-05 28.4329C3.67174 18.9413 8.29514 9.83707 13.801 1.25639C14.045 0.915464 14.413 0.681106 14.8278 0.602364Z" fill="url(#paint6_radial_209_657)"/>
<path style="mix-blend-mode:multiply" fill-rule="evenodd" clip-rule="evenodd" d="M31.6744 13.769C29.3075 15.8688 24.7129 17.2113 23.7383 15.8344C23.077 16.8154 22.4157 17.762 21.7717 18.6914C23.6861 18.6054 26.1748 18.5538 28.4721 18.5365C29.5859 16.9359 30.6127 15.3353 31.6744 13.769Z" fill="url(#paint7_radial_209_657)"/>
<path style="mix-blend-mode:multiply" fill-rule="evenodd" clip-rule="evenodd" d="M7.04838 29.5859C8.33624 30.5842 6.35224 33.6994 3.7417 33.6478C3.98535 33.9059 4.19419 34.0781 4.28121 34.0781C5.34283 34.0781 6.85694 34.1641 8.42326 34.1641C9.0846 32.5463 9.78074 30.9628 10.4595 29.4482C9.5719 29.4482 8.35365 29.5687 6.97876 29.5859H7.04838Z" fill="url(#paint8_radial_209_657)"/>
<path style="mix-blend-mode:screen" fill-rule="evenodd" clip-rule="evenodd" d="M15.1411 4.4921C19.2966 3.89262 23.5108 3.80013 27.6891 4.21672C28.2391 4.26814 28.7636 4.47085 29.2032 4.8019C30.0386 5.49035 29.4817 7.00493 28.7507 8.33019C30.23 6.07553 31.6745 3.85528 33.0668 1.72109C33.1354 1.60019 33.1714 1.46387 33.1714 1.32523C33.1714 1.18659 33.1354 1.05028 33.0668 0.929377C32.9996 0.815546 32.9063 0.718884 32.7945 0.647148C32.6826 0.575412 32.5554 0.5306 32.4229 0.516308C26.5783 -0.199144 20.665 -0.170223 14.8278 0.602364C14.413 0.681106 14.0451 0.915464 13.801 1.25639C11.2242 5.12206 8.89902 9.14616 6.8396 13.3042C8.70178 10.3267 12.4261 4.92238 15.1411 4.4921Z" fill="url(#paint9_radial_209_657)"/>
<path style="mix-blend-mode:screen" fill-rule="evenodd" clip-rule="evenodd" d="M32.7186 18.5537C31.8484 18.5537 30.7172 18.5537 29.4989 18.5537C31.5526 19.2077 31.5526 20.6879 29.8992 22.8221C25.4787 28.5018 13.6965 42.6838 7.91851 46.9178C4.99471 49.0347 4.03752 47.6923 3.9331 45.8163C3.20215 47.8472 2.66263 49.5511 2.38418 50.6698C2.10572 51.7885 1.44438 54.1121 1.79246 54.4907C2.08832 54.6456 3.09772 53.8883 4.14194 52.9761C4.73366 52.4426 5.34278 51.8574 5.8823 51.3583C15.1758 41.8633 23.9426 31.8776 32.1443 21.4452L33.3625 19.8962C33.4464 19.768 33.4911 19.6186 33.4911 19.4659C33.4911 19.3132 33.4464 19.1638 33.3625 19.0356C33.2929 18.9128 33.192 18.8101 33.0699 18.7377C32.9478 18.6652 32.8087 18.6255 32.6664 18.6226L32.7186 18.5537Z" fill="url(#paint10_radial_209_657)"/>
<path style="mix-blend-mode:screen" fill-rule="evenodd" clip-rule="evenodd" d="M15.6631 1.08436C15.2149 1.1797 14.804 1.4008 14.4796 1.72117C11.6254 4.56102 4.71623 17.9341 3.70682 21.4796C3.70682 21.7206 3.55019 22.1337 3.70682 22.3058C3.86345 22.4779 4.40296 21.9443 4.5596 21.7034C7.10052 17.7276 9.38039 13.5969 11.8865 9.65554C13.1918 7.59019 14.6885 5.3011 16.133 3.44229C17.2339 2.42228 18.6251 1.76139 20.1184 1.54906C22.0154 1.03272 21.2496 0.568022 19.8747 0.619655C18.4611 0.669911 17.0532 0.82525 15.6631 1.08436Z" fill="url(#paint11_linear_209_657)"/>
<path style="mix-blend-mode:screen" fill-rule="evenodd" clip-rule="evenodd" d="M31.7788 18.7947C28.681 18.7947 25.5484 18.7947 22.4505 18.9152C20.9364 18.9152 22.1024 20.5158 23.1641 20.6363C26.0498 20.7116 28.9291 20.3281 31.6918 19.5003C31.9529 19.5003 32.3357 19.311 32.3706 19.0528C32.4054 18.7947 31.9877 18.8463 31.7788 18.8463V18.7947Z" fill="url(#paint12_linear_209_657)"/>
<path style="mix-blend-mode:screen" opacity="0.5" fill-rule="evenodd" clip-rule="evenodd" d="M5.22099 52.0295C5.02956 55.3857 12.8264 49.1897 14.6015 47.5718C20.6058 42.1331 27.776 34.5774 31.8485 27.5208C33.2582 25.0768 33.4322 21.9444 31.3612 22.4951C23.4426 32.455 15.008 42.0028 6.09117 51.1001L5.89973 51.2895L5.22099 52.0295Z" fill="url(#paint13_radial_209_657)"/>
<path style="mix-blend-mode:screen" fill-rule="evenodd" clip-rule="evenodd" d="M16.0287 7.12551C15.1894 7.70438 14.4738 8.44132 13.9229 9.29412C11.0513 14.1305 8.59738 19.2078 5.96944 24.1818C5.42993 25.2145 4.82081 27.1938 6.77001 27.3659C9.06728 27.5724 11.3646 27.3659 13.7314 27.3659C11.0376 32.4556 8.71698 37.73 6.78741 43.1486C6.30011 44.8697 7.67499 44.8697 8.75402 43.8542C13.7662 39.2416 22.6247 29.741 26.1054 23.6999C27.0452 22.1165 25.4614 21.3592 24.1388 21.3075C22.2244 21.3075 20.2926 21.3075 18.3782 21.3075C20.6059 17.7104 22.9553 14.1821 25.0786 10.5333C25.3863 10.0042 25.5817 9.41854 25.6529 8.81221C25.7026 8.39582 25.6475 7.97375 25.4927 7.58344C25.3379 7.19313 25.088 6.84665 24.7653 6.57475C23.7733 5.66256 21.0583 5.62813 18.8133 6.05841C17.8313 6.19965 16.8894 6.53946 16.0461 7.05666L16.0287 7.12551Z" fill="url(#paint14_radial_209_657)"/>
</g>
<defs>
<radialGradient id="paint0_radial_209_657" cx="0" cy="0" r="1" gradientUnits="userSpaceOnUse" gradientTransform="translate(-2.83685 26.4536) scale(15.35 15.1803)">
<stop stop-color="#00BDFC"/>
<stop offset="1" stop-color="#0061BD"/>
</radialGradient>
<radialGradient id="paint1_radial_209_657" cx="0" cy="0" r="1" gradientUnits="userSpaceOnUse" gradientTransform="translate(27.3933 4.75032) scale(37.5917 37.1762)">
<stop stop-color="#00BDFC"/>
<stop offset="1" stop-color="#0061BD"/>
</radialGradient>
<radialGradient id="paint2_radial_209_657" cx="0" cy="0" r="1" gradientUnits="userSpaceOnUse" gradientTransform="translate(33.6236 48.3291) scale(70.6585 69.8775)">
<stop stop-color="#0061BD"/>
<stop offset="1" stop-color="#00BDFC"/>
</radialGradient>
<radialGradient id="paint3_radial_209_657" cx="0" cy="0" r="1" gradientUnits="userSpaceOnUse" gradientTransform="translate(24.6433 1.91035) scale(18.4826 18.2783)">
<stop stop-color="white"/>
<stop offset="0.11" stop-color="#F9FAFB"/>
<stop offset="0.26" stop-color="#E9ECF1"/>
<stop offset="0.42" stop-color="#CFD5DF"/>
<stop offset="0.6" stop-color="#AAB6C6"/>
<stop offset="0.79" stop-color="#7A8DA6"/>
<stop offset="0.98" stop-color="#415B80"/>
<stop offset="1" stop-color="#3C577D"/>
</radialGradient>
<radialGradient id="paint4_radial_209_657" cx="0" cy="0" r="1" gradientUnits="userSpaceOnUse" gradientTransform="translate(4.14204 23.2868) scale(39.3495 38.9145)">
<stop stop-color="white"/>
<stop offset="0.11" stop-color="#F9FAFB"/>
<stop offset="0.26" stop-color="#E9ECF1"/>
<stop offset="0.42" stop-color="#CFD5DF"/>
<stop offset="0.6" stop-color="#AAB6C6"/>
<stop offset="0.79" stop-color="#7A8DA6"/>
<stop offset="0.98" stop-color="#415B80"/>
<stop offset="1" stop-color="#3C577D"/>
</radialGradient>
<radialGradient id="paint5_radial_209_657" cx="0" cy="0" r="1" gradientUnits="userSpaceOnUse" gradientTransform="translate(21.215 40.0161) scale(25.357 25.0767)">
<stop offset="0.58"/>
<stop offset="0.74" stop-color="#000202"/>
<stop offset="0.79" stop-color="#000909"/>
<stop offset="0.83" stop-color="#001414"/>
<stop offset="0.87" stop-color="#002525"/>
<stop offset="0.89" stop-color="#003B3B"/>
<stop offset="0.92" stop-color="#005757"/>
<stop offset="0.94" stop-color="#007777"/>
<stop offset="0.96" stop-color="#009D9D"/>
<stop offset="0.98" stop-color="#00C8C8"/>
<stop offset="1" stop-color="#00FFFF"/>
</radialGradient>
<radialGradient id="paint6_radial_209_657" cx="0" cy="0" r="1" gradientUnits="userSpaceOnUse" gradientTransform="translate(12.6175 0.619575) scale(54.6472 54.0432)">
<stop stop-color="#00F9FC"/>
<stop offset="1" stop-color="#0081FC"/>
</radialGradient>
<radialGradient id="paint7_radial_209_657" cx="0" cy="0" r="1" gradientUnits="userSpaceOnUse" gradientTransform="translate(20.5361 10.3268) scale(14.4102 14.2509)">
<stop stop-color="white"/>
<stop offset="0.11" stop-color="#F9FAFB"/>
<stop offset="0.26" stop-color="#E9ECF1"/>
<stop offset="0.42" stop-color="#CFD5DF"/>
<stop offset="0.6" stop-color="#AAB6C6"/>
<stop offset="0.79" stop-color="#7A8DA6"/>
<stop offset="0.98" stop-color="#415B80"/>
<stop offset="1" stop-color="#3C577D"/>
</radialGradient>
<radialGradient id="paint8_radial_209_657" cx="0" cy="0" r="1" gradientUnits="userSpaceOnUse" gradientTransform="translate(3.81131 29.672) scale(13.8358 13.6829)">
<stop stop-color="white"/>
<stop offset="0.11" stop-color="#F9FAFB"/>
<stop offset="0.26" stop-color="#E9ECF1"/>
<stop offset="0.42" stop-color="#CFD5DF"/>
<stop offset="0.6" stop-color="#AAB6C6"/>
<stop offset="0.79" stop-color="#7A8DA6"/>
<stop offset="0.98" stop-color="#415B80"/>
<stop offset="1" stop-color="#3C577D"/>
</radialGradient>
<radialGradient id="paint9_radial_209_657" cx="0" cy="0" r="1" gradientUnits="userSpaceOnUse" gradientTransform="translate(27.3932 12.5125) scale(28.9944 28.6739)">
<stop/>
<stop offset="0.08" stop-color="#002323"/>
<stop offset="0.22" stop-color="#005C5C"/>
<stop offset="0.36" stop-color="#008E8E"/>
<stop offset="0.5" stop-color="#00B7B7"/>
<stop offset="0.64" stop-color="#00D6D6"/>
<stop offset="0.77" stop-color="#00EDED"/>
<stop offset="0.89" stop-color="#00FAFA"/>
<stop offset="1" stop-color="#00FFFF"/>
</radialGradient>
<radialGradient id="paint10_radial_209_657" cx="0" cy="0" r="1" gradientUnits="userSpaceOnUse" gradientTransform="translate(42.2558 71.7019) scale(58.302 57.6575)">
<stop stop-color="#00FFFF"/>
<stop offset="0.11" stop-color="#00FAFA"/>
<stop offset="0.23" stop-color="#00EDED"/>
<stop offset="0.36" stop-color="#00D6D6"/>
<stop offset="0.5" stop-color="#00B7B7"/>
<stop offset="0.64" stop-color="#008E8E"/>
<stop offset="0.78" stop-color="#005C5C"/>
<stop offset="0.92" stop-color="#002323"/>
<stop offset="1"/>
</radialGradient>
<linearGradient id="paint11_linear_209_657" x1="18.8827" y1="-1.49732" x2="2.82401" y2="29.4919" gradientUnits="userSpaceOnUse">
<stop stop-color="#A1E1FF"/>
<stop offset="1"/>
</linearGradient>
<linearGradient id="paint12_linear_209_657" x1="21.7196" y1="19.6897" x2="32.3706" y2="19.6897" gradientUnits="userSpaceOnUse">
<stop stop-color="#A1E1FF"/>
<stop offset="1"/>
</linearGradient>
<radialGradient id="paint13_radial_209_657" cx="0" cy="0" r="1" gradientUnits="userSpaceOnUse" gradientTransform="translate(0.765679 12.5298) scale(42.6214 42.1502)">
<stop stop-color="#00FFFF"/>
<stop offset="0.11" stop-color="#00FAFA"/>
<stop offset="0.23" stop-color="#00EDED"/>
<stop offset="0.36" stop-color="#00D6D6"/>
<stop offset="0.5" stop-color="#00B7B7"/>
<stop offset="0.64" stop-color="#008E8E"/>
<stop offset="0.78" stop-color="#005C5C"/>
<stop offset="0.92" stop-color="#002323"/>
<stop offset="1"/>
</radialGradient>
<radialGradient id="paint14_radial_209_657" cx="0" cy="0" r="1" gradientUnits="userSpaceOnUse" gradientTransform="translate(-8.07524 7.02224) scale(40.2893 39.8439)">
<stop stop-color="#00FFFF"/>
<stop offset="0.11" stop-color="#00FAFA"/>
<stop offset="0.23" stop-color="#00EDED"/>
<stop offset="0.36" stop-color="#00D6D6"/>
<stop offset="0.5" stop-color="#00B7B7"/>
<stop offset="0.64" stop-color="#008E8E"/>
<stop offset="0.78" stop-color="#005C5C"/>
<stop offset="0.92" stop-color="#002323"/>
<stop offset="1"/>
</radialGradient>
<clipPath id="clip0_209_657">
<rect width="37" height="59" fill="white"/>
</clipPath>
</defs>
</svg>
