<svg width="224" height="73" viewBox="0 0 224 73" fill="none" xmlns="http://www.w3.org/2000/svg">
<rect x="178.466" y="65.7784" width="9.87785" height="9.87785" rx="2" transform="rotate(-45 178.466 65.7784)" fill="#CE6328" fill-opacity="0.6"/>
<mask id="path-2-inside-1_88_145" fill="white">
<path d="M12.4852 34.1905C12.4852 37.6382 9.69033 40.4331 6.24262 40.4331C2.79492 40.4331 0 37.6382 0 34.1905C0 30.7428 2.79492 27.9479 6.24262 27.9479C9.69033 27.9479 12.4852 30.7428 12.4852 34.1905Z"/>
</mask>
<path d="M8.48525 34.1905C8.48525 35.4291 7.48119 36.4331 6.24262 36.4331V44.4331C11.8995 44.4331 16.4852 39.8473 16.4852 34.1905H8.48525ZM6.24262 36.4331C5.00406 36.4331 4 35.4291 4 34.1905H-4C-4 39.8473 0.585779 44.4331 6.24262 44.4331V36.4331ZM4 34.1905C4 32.9519 5.00406 31.9479 6.24262 31.9479V23.9479C0.585779 23.9479 -4 28.5337 -4 34.1905H4ZM6.24262 31.9479C7.48119 31.9479 8.48525 32.9519 8.48525 34.1905H16.4852C16.4852 28.5337 11.8995 23.9479 6.24262 23.9479V31.9479Z" fill="#CE6328" fill-opacity="0.6" mask="url(#path-2-inside-1_88_145)"/>
<mask id="path-4-inside-2_88_145" fill="white">
<path d="M224 54.02C224 57.4677 221.205 60.2626 217.757 60.2626C214.31 60.2626 211.515 57.4677 211.515 54.02C211.515 50.5723 214.31 47.7773 217.757 47.7773C221.205 47.7773 224 50.5723 224 54.02Z"/>
</mask>
<path d="M220 54.02C220 55.2585 218.996 56.2626 217.757 56.2626V64.2626C223.414 64.2626 228 59.6768 228 54.02H220ZM217.757 56.2626C216.519 56.2626 215.515 55.2585 215.515 54.02H207.515C207.515 59.6768 212.1 64.2626 217.757 64.2626V56.2626ZM215.515 54.02C215.515 52.7814 216.519 51.7773 217.757 51.7773V43.7773C212.1 43.7773 207.515 48.3631 207.515 54.02H215.515ZM217.757 51.7773C218.996 51.7773 220 52.7814 220 54.02H228C228 48.3631 223.414 43.7773 217.757 43.7773V51.7773Z" fill="#CE6328" fill-opacity="0.6" mask="url(#path-4-inside-2_88_145)"/>
<path d="M44.3789 69.275C44.8562 68.7977 44.8562 68.0238 44.3789 67.5465C43.9016 67.0692 43.1277 67.0692 42.6504 67.5465C42.1731 68.0238 42.1731 68.7977 42.6504 69.275C43.1277 69.7523 43.9016 69.7523 44.3789 69.275Z" fill="#E2A17E"/>
<path d="M37.3459 63.9706L38.4679 65.0925C41.2549 62.3055 45.7744 62.3055 48.5614 65.0925L49.6834 63.9706C46.2779 60.5651 40.7514 60.5651 37.3459 63.9706ZM39.5898 66.2145L40.7118 67.3364C42.2579 65.7903 44.7714 65.7903 46.3175 67.3364L47.4395 66.2145C45.2709 64.0459 41.7584 64.0459 39.5898 66.2145Z" fill="#E2A17E"/>
<path d="M181.033 11.4732C181.51 10.9958 181.51 10.222 181.033 9.74465C180.556 9.26733 179.782 9.26733 179.304 9.74465C178.827 10.222 178.827 10.9958 179.304 11.4732C179.782 11.9505 180.556 11.9505 181.033 11.4732Z" fill="#E2A17E"/>
<path d="M174 6.1687L175.122 7.29064C177.909 4.50363 182.428 4.50363 185.215 7.29064L186.337 6.1687C182.932 2.76323 177.405 2.76323 174 6.1687ZM176.244 8.41259L177.366 9.53453C178.912 7.98839 181.425 7.98839 182.972 9.53453L184.094 8.41259C181.925 6.24403 178.412 6.24403 176.244 8.41259Z" fill="#E2A17E"/>
<rect x="21.1516" y="5.18066" width="2.49705" height="12.4852" rx="1.24852" fill="#DF9F7C"/>
<rect x="16.1575" y="12.6718" width="2.49705" height="12.4852" rx="1.24852" transform="rotate(-90 16.1575 12.6718)" fill="#DF9F7C"/>
<path d="M132.417 36V56.4167H91.5833V36H85.75V56.4167C85.75 59.625 88.375 62.25 91.5833 62.25H132.417C135.625 62.25 138.25 59.625 138.25 56.4167V36H132.417ZM114.917 37.9542L122.471 30.4292L126.583 34.5417L112 49.125L97.4167 34.5417L101.529 30.4292L109.083 37.9542V9.75H114.917V37.9542Z" fill="#CE6328"/>
</svg>
