<svg width="139" height="137" viewBox="0 0 139 137" fill="none" xmlns="http://www.w3.org/2000/svg">
<mask id="mask0_250_617" style="mask-type:alpha" maskUnits="userSpaceOnUse" x="0" y="0" width="139" height="137">
<rect y="0.550476" width="139" height="136.45" fill="#C4C4C4"/>
</mask>
<g mask="url(#mask0_250_617)">
<path d="M33.8849 219.751C46.6496 214.017 137.933 237.717 137.933 237.717C137.933 237.717 114.08 133.14 117.282 93.2399C120.485 53.3403 51.8573 71.2764 51.8573 71.2764L33.8849 219.766V219.751Z" fill="#4C1E27"/>
<path d="M92.0371 2.15201C110.653 4.72714 115.861 18.8006 115.487 31.7062C115.112 44.5968 113.616 112.628 113.616 112.628C113.616 112.628 78.4194 123.648 66.6423 95.5306C54.8801 67.4287 53.5633 51.7234 61.4047 41.872C63.0059 39.8658 63.8888 33.7873 64.7867 25.9121C66.6273 9.96725 75.4265 -0.153639 92.0371 2.15201Z" fill="#0C476B"/>
<path d="M7.24799 112.628C6.24537 108.975 18.2619 90.4103 21.599 92.9705C21.599 92.9705 20.4617 119.95 16.7205 120.698C12.9794 121.447 7.24799 112.628 7.24799 112.628Z" fill="#4C1E27"/>
<path d="M48.8794 54.2236L13.9222 120.054C13.9222 120.054 14.85 132.975 21.21 134.427C27.5699 135.879 52.441 109.724 52.441 109.724L48.8645 54.2087L48.8794 54.2236Z" fill="#662C33"/>
<path d="M12.3659 115.757C8.80439 105.502 7.65212 76.9357 10.2559 64.045L16.6608 64.6439C16.6608 64.6439 20.8658 95.7252 25.1906 105.232C29.5004 114.739 28.7671 122.48 22.6765 126.297C16.6009 130.115 13.1142 117.913 12.3659 115.757Z" fill="#FF8B66"/>
<path d="M122.924 64.4793C122.924 64.4793 130.84 88.0149 132.022 128.184C132.022 128.184 133.953 130.175 133.699 131.672C133.444 133.17 135.689 136.329 135.195 136.987C134.701 137.661 144.922 173.084 144.922 173.084C144.922 173.084 136.437 181.064 137.933 196.545L120.979 161.361C120.979 161.361 115.891 73.3725 122.924 64.4644V64.4793Z" fill="#662C33"/>
<path d="M94.9104 144.907C94.9104 144.907 72.9574 152.648 52.2464 137.002C52.2464 137.002 48.4006 57.9067 55.7182 52.6067C58.9206 50.2861 65.2357 52.1426 71.3262 54.9723C79.1826 58.6254 86.6948 63.8804 86.6948 63.8804C86.6948 63.8804 100.328 61.9491 111.072 63.1318C117.911 63.8655 123.567 65.8717 123.822 70.4081C124.495 82.101 94.9104 144.907 94.9104 144.907Z" fill="#FF8B66"/>
<path d="M111.656 63.3115C107.047 62.8324 106.194 66.3209 101.584 67.9977C96.9604 69.6895 91.4235 70.992 89.3285 71.1867C87.2335 71.3813 86.1261 73.9864 86.1261 73.9864C86.1261 73.9864 85.3779 70.468 84.2406 70.1686C83.1332 69.8841 73.3613 60.0477 71.3262 54.9723C79.1826 58.6254 86.6948 63.8805 86.6948 63.8805C86.6948 63.8805 100.327 61.9491 111.072 63.1319C111.446 63.2517 111.656 63.3115 111.656 63.3115Z" fill="#EF6E4B"/>
<path d="M84.9441 37.7249C84.9441 37.7249 86.6949 58.835 80.8138 61.8593C80.8138 61.8593 85.1536 69.8692 96.781 64.9884C96.781 64.9884 94.8207 54.1339 102.512 41.2283C107.66 32.5896 84.9291 37.7099 84.9291 37.7099L84.9441 37.7249Z" fill="#EF6E4B"/>
<path d="M106.134 30.4635C106.134 30.4635 110.503 25.3881 111.506 30.8528C112.673 37.2008 107.062 40.2101 105.775 38.2638C104.488 36.3175 106.134 30.4635 106.134 30.4635Z" fill="#FF8B66"/>
<path d="M73.0471 33.3231C73.0471 33.3231 67.9592 28.9663 67.7945 34.5208C67.6 40.9587 73.6008 43.0996 74.5884 40.9736C75.5761 38.8476 73.0471 33.3081 73.0471 33.3081V33.3231Z" fill="#FF8B66"/>
<path d="M91.8427 54.8525C102.333 54.059 107.735 46.7528 106.164 26.1817C105.356 15.5817 99.4597 9.47323 87.7125 10.3715C75.9654 11.2698 71.5059 18.1568 72.314 28.7568C73.99 50.8551 80.9934 55.676 91.8278 54.8525H91.8427Z" fill="#FF8B66"/>
<path d="M76.3543 35.8234C76.2496 36.8864 77.2522 37.8595 78.584 37.9943C79.9159 38.129 81.0831 37.3655 81.1879 36.2875C81.2926 35.2245 80.29 34.2514 78.9582 34.1166C77.6263 33.9819 76.4591 34.7454 76.3543 35.8234Z" fill="#DB614D"/>
<path d="M97.978 34.7605C98.1277 35.8234 99.3249 36.5271 100.657 36.3475C101.989 36.1528 102.946 35.1497 102.797 34.0867C102.647 33.0237 101.45 32.3201 100.118 32.4997C98.7861 32.6944 97.8284 33.6975 97.978 34.7605Z" fill="#DB614D"/>
<path d="M80.0805 24.7443C80.29 24.8491 80.5593 24.7892 80.709 24.5945C82.0408 22.9626 84.6147 22.8279 84.6297 22.8279C84.914 22.8279 85.1385 22.5734 85.1385 22.2739C85.1385 21.9895 84.8841 21.7649 84.5848 21.7649C84.4651 21.7649 81.5171 21.9296 79.8859 23.9208C79.7064 24.1454 79.7363 24.4748 79.9608 24.6544C79.9907 24.6844 80.0356 24.6994 80.0655 24.7293L80.0805 24.7443Z" fill="#0C476B"/>
<path d="M95.2844 21.9596C95.3742 22.0045 95.464 22.0195 95.5688 22.0045C95.5987 22.0045 98.1576 21.75 99.7139 23.1573C99.9234 23.3519 100.268 23.337 100.462 23.1124C100.657 22.9028 100.642 22.5584 100.417 22.3638C98.5018 20.6421 95.5837 20.9265 95.449 20.9415C95.1647 20.9714 94.9552 21.226 94.9851 21.5254C95.0001 21.72 95.1198 21.8697 95.2844 21.9446V21.9596Z" fill="#0C476B"/>
<path d="M81.6668 30.2988C81.7715 31.6014 82.43 32.6194 83.1632 32.5595C83.8815 32.4997 84.3903 31.4067 84.3005 30.1042C84.1958 28.8016 83.5373 27.7836 82.8041 27.8435C82.0858 27.9033 81.577 28.9963 81.6668 30.2988Z" fill="#1A4850"/>
<path d="M96.4666 29.2209C96.5713 30.5235 97.2298 31.5416 97.963 31.4817C98.6813 31.4218 99.1901 30.3288 99.1003 29.0263C98.9956 27.7238 98.3371 26.7057 97.6039 26.7656C96.8856 26.8255 96.3768 27.9184 96.4666 29.2209Z" fill="#1A4850"/>
<path d="M95.3293 41.9618C95.3293 41.9618 88.8646 43.3692 85.3629 41.872C85.3629 41.872 87.6375 46.5731 91.1692 45.8545C94.7008 45.1508 95.3293 41.9469 95.3293 41.9469V41.9618Z" fill="#1A4850"/>
<path d="M85.1534 29.3855C85.1534 29.3855 83.9562 26.2415 82.7142 26.5709C81.4721 26.9002 80.7239 29.7149 80.7239 29.7149L78.7935 28.8765L80.679 28.9813C80.679 28.9813 81.4272 26.0319 82.6842 25.9421C84.465 25.7923 85.1684 29.3855 85.1684 29.3855H85.1534Z" fill="#1A4850"/>
<path d="M95.3743 28.9963C95.3743 28.9963 96.0926 25.7175 97.3646 25.8522C98.6366 25.987 99.8038 28.6669 99.8038 28.6669L101.585 27.544L99.744 27.9333C99.744 27.9333 98.5618 25.1336 97.3048 25.2234C95.524 25.3582 95.3594 29.0113 95.3594 29.0113L95.3743 28.9963Z" fill="#1A4850"/>
<path d="M89.6428 37.0061C89.8673 37.1109 90.1217 37.2008 90.406 37.2457L90.6155 36.1378C89.6728 35.9581 89.4184 35.4042 89.3735 34.955C89.3136 34.3412 89.6428 33.7273 89.987 33.6076C90.1816 33.5327 90.406 33.6525 90.6305 33.9669L91.5284 33.2782C90.7352 32.2451 89.8972 32.4248 89.568 32.5595C88.73 32.8889 88.1464 33.9968 88.2362 35.0748C88.311 35.9581 88.8198 36.6468 89.6279 37.0211L89.6428 37.0061Z" fill="#DB614D"/>
<path d="M89.3286 11.8986C89.3286 11.8986 76.5788 34.8353 69.8447 31.7062C69.8447 31.7062 68.0639 7.16754 87.5328 7.16754C107.002 7.16754 110.863 18.1268 110.803 28.9963C110.803 28.9963 108.079 33.0087 105.67 32.4398C105.67 32.4398 108.693 12.3627 89.3286 11.8986Z" fill="#0C476B"/>
<path d="M123.837 79.0917C121.098 95.5007 112.344 156.51 74.8129 148.65C74.6483 148.62 74.4687 148.575 74.3041 148.545C73.7953 148.441 73.3014 148.336 72.8226 148.231C37.6858 140.655 48.1461 137.002 48.1461 137.002C48.1461 137.002 33.8848 49.0883 61.9733 51.7832C61.9733 51.7832 82.6393 77.6694 83.1032 87.9699C83.1481 88.5388 83.1032 89.0778 82.9985 89.5419C83.0883 89.2575 83.5522 88.0148 85.2731 85.814C88.4905 81.7117 96.1822 74.2558 114.244 63.5959C114.244 63.5959 126.575 62.6677 123.837 79.0917Z" fill="#FFB878"/>
<path d="M111.656 61.8143C111.656 61.8143 100.298 96.8781 100.387 120.833C100.477 144.788 132.022 242.209 132.022 242.209C132.022 242.209 135.689 240.711 137.933 237.717C137.933 237.717 123.957 131.433 123.837 120.204C123.717 108.975 126.246 71.0968 122.924 64.4793C122.924 64.4793 121.293 62.3683 111.656 61.8143Z" fill="#8B383E"/>
<path d="M65.5648 52.6815C65.5648 52.6815 66.6872 95.4408 65.5648 104.124C64.4425 112.808 55.6733 161.077 50.8397 177.606C46.0062 194.119 39.9306 227.985 39.9306 227.985L33.8998 219.751C33.8998 219.751 30.1138 186.454 33.8998 169.611C37.6859 152.767 42.0555 140.7 42.4895 137.002C42.9235 133.304 39.8857 79.1815 48.8943 54.2087C48.8943 54.2087 56.7507 48.8638 65.5798 52.6666L65.5648 52.6815Z" fill="#8B383E"/>
<path d="M85.2731 85.814C84.6446 88.6137 83.223 91.9075 81.7565 95.351C79.9906 99.4533 78.165 103.69 77.731 107.074C77.4916 109.02 77.5065 112.015 77.5215 115.802C77.5514 124.471 77.6113 137.107 74.3041 148.546C73.7953 148.441 73.3015 148.336 72.8226 148.231C76.0999 136.972 76.055 124.411 76.025 115.802C76.025 111.97 75.9951 108.93 76.2495 106.879C76.7134 103.301 78.569 98.9592 80.3797 94.7521C81.3973 92.3716 82.3999 90.051 83.1033 87.97C83.1482 88.5389 83.1033 89.0779 82.9985 89.542C83.0883 89.2575 83.5522 88.0149 85.2731 85.814Z" fill="#F2A668"/>
<path d="M21.614 92.9705C21.614 92.9705 12.5006 118.018 7.263 112.628C7.263 112.628 13.7426 133.424 21.2249 134.427C28.7072 135.43 32.2089 105.487 32.2089 105.487C32.2089 105.487 25.7143 94.5725 24.9661 95.5457C24.2178 96.5188 23.9634 98.8843 23.9634 98.8843L21.614 92.9855V92.9705Z" fill="#662C33"/>
<path d="M63.4848 41.1084C56.4664 47.2169 56.0025 54.0889 63.1107 66.5603C70.2188 79.0318 68.7224 94.3479 68.7224 94.3479C68.7224 94.3479 82.9087 80.3044 72.8226 54.2087L63.4848 41.0934V41.1084Z" fill="#0C476B"/>
<path d="M24.5171 51.4988L21.1352 59.0894C17.7681 66.6951 16.7206 65.7069 12.351 66.7101C8.26565 67.6533 5.72168 60.377 5.49721 57.0982C5.28771 54.3284 0.858205 48.8338 1.30714 46.4982C1.48672 45.555 2.10026 46.109 3.2675 48.0104C4.64423 50.2412 6.66445 51.8132 6.66445 51.8132C8.11601 49.283 2.33969 41.7073 4.30005 39.2369C5.25778 38.0392 7.92147 49.1482 9.67232 49.4776C9.67232 49.4776 10.2859 48.6092 9.41792 43.0547C8.92409 39.8658 8.38537 36.587 9.23835 35.9731C10.7947 34.8652 10.6749 41.7223 13.4434 48.9985C13.4434 48.9985 13.5182 45.4802 13.3686 42.2163C13.2189 39.2369 12.77 36.4672 14.1018 36.5271C15.1942 36.572 15.299 41.2282 15.4786 44.1926C15.8227 49.7171 17.2743 53.6847 18.1722 55.6759C18.5912 56.6341 18.9054 57.1281 18.9054 57.1281C22.9908 49.6722 24.5171 51.4988 24.5171 51.4988Z" fill="#FF8B66"/>
<path d="M18.9055 57.1282C18.9055 57.1282 15.4188 58.2511 14.476 60.8861C14.476 60.8861 13.7278 56.709 18.1722 55.676C18.5913 56.6342 18.9055 57.1282 18.9055 57.1282Z" fill="#EF6E4B"/>
</g>
</svg>
