<svg width="191" height="149" viewBox="0 0 191 149" fill="none" xmlns="http://www.w3.org/2000/svg">
<mask id="mask0_250_614" style="mask-type:alpha" maskUnits="userSpaceOnUse" x="0" y="0" width="191" height="149">
<rect width="190.632" height="149" fill="#C4C4C4"/>
</mask>
<g mask="url(#mask0_250_614)">
<path d="M160.911 133.714C158.907 136.522 145.843 124.349 145.843 118.86C145.843 118.86 157.642 110.549 162.916 113.595C168.19 116.642 160.911 133.714 160.911 133.714Z" fill="#B72E48"/>
<path d="M152.428 109.369L141.654 126.217L130.789 132.071C130.789 132.071 133.035 142.18 138.067 144.637C143.115 147.079 147.109 131.145 147.109 131.145C147.109 131.145 163.187 120.222 169.712 107.783C176.236 95.3439 152.428 109.383 152.428 109.383V109.369Z" fill="#FF8B66"/>
<path d="M129.523 53.815C129.523 53.815 173.223 80.0548 183.514 88.0433C183.514 88.0433 186.528 92.8448 183.514 101.226C180.501 109.608 175.483 116.852 175.483 116.852C175.483 116.852 175.739 120.376 174.986 120.727C174.232 121.078 171.716 122.005 171.716 122.707C171.716 123.409 165.191 128.632 160.911 133.7C160.911 133.7 154.568 120.713 145.843 118.846L157.19 100.328C157.19 100.328 156.798 100.005 156.647 99.4996C156.406 98.6853 157.19 96.7338 157.19 96.7338L134.044 90.416L129.523 53.815V53.815Z" fill="#CE364C"/>
<path d="M28.5784 89.4192C24.54 88.6189 14.3687 100.103 14.1879 107.783L27.7497 114.564L28.5784 89.4192Z" fill="#B72E48"/>
<path d="M56.7569 68.9075C53.6829 70.4097 24.0881 130.766 24.0881 130.766C24.0881 130.766 25.0223 142.882 31.4265 144.243C37.8307 145.605 62.8748 121.078 62.8748 121.078C62.8748 121.078 69.2338 62.8283 56.7419 68.8934L56.7569 68.9075Z" fill="#CE364C"/>
<path d="M22.5209 126.736C18.9346 117.119 17.7743 90.3317 20.3962 78.2437L26.8456 78.8053C26.8456 78.8053 31.0799 107.951 35.4348 116.866C39.7745 125.781 39.0362 133.04 32.9032 136.62C26.7853 140.2 23.2743 128.758 22.5209 126.736V126.736Z" fill="#FF8B66"/>
<path d="M30.884 65.552L29.9196 73.2878C28.9703 81.0376 27.6743 80.4479 23.7716 82.5679C20.1249 84.5615 15.4989 78.7632 14.2934 75.8991C13.2536 73.4843 7.34672 69.82 7.06042 67.6018C6.95494 66.7033 7.70837 67.0262 9.39606 68.402C11.3851 70.0166 13.8112 70.8449 13.8112 70.8449C14.4441 68.1774 6.60836 63.0249 7.75358 60.2591C8.31112 58.9254 14.218 68.1072 15.9961 67.9107C15.9961 67.9107 16.3276 66.956 13.8112 62.2387C12.3797 59.5291 10.8728 56.7352 11.5057 55.949C12.666 54.517 14.6249 60.6944 19.477 66.4225C19.477 66.4225 18.4825 63.2495 17.3674 60.3714C16.3276 57.7461 15.0619 55.4015 16.3578 55.0785C17.4277 54.8118 18.9195 58.9535 19.9893 61.5508C21.9784 66.3944 24.5702 69.5392 26.0319 71.0696C26.725 71.8136 27.1771 72.1646 27.1771 72.1646C28.8497 64.3446 30.8689 65.552 30.8689 65.552H30.884Z" fill="#FF8B66"/>
<path d="M27.1772 72.1646C27.1772 72.1646 24.1634 74.1442 24.058 76.7696C24.058 76.7696 22.084 73.2457 26.0319 71.0695C26.7251 71.8136 27.1772 72.1646 27.1772 72.1646Z" fill="#EF6E4B"/>
<path d="M92.5901 3.0341C68.1337 1.8969 63.2213 21.4539 65.8583 44.4085C68.4954 67.3631 62.8295 96.6074 59.4391 107.965C56.0637 119.323 60.961 129.348 60.961 129.348C60.961 129.348 57.9473 120.84 63.2213 107.965C63.2213 107.965 54.7829 134.149 77.4612 139.021C100.14 143.892 105.172 136.381 111.803 99.8646C118.448 63.3478 128.002 4.69076 92.5901 3.0341Z" fill="#0E3944"/>
<path d="M56.561 136.845C57.8117 142.98 76.0297 142.531 88.838 134.963C101.646 127.396 142.061 128.519 141.654 118.86C141.232 109.201 86.9394 79.5213 86.9394 79.5213C86.9394 79.5213 52.4321 116.572 56.576 136.845H56.561Z" fill="#B72E48"/>
<path d="M51.3171 338.522L61.4583 340.726C61.4583 340.726 77.3105 261.572 80.9571 253.204C84.0914 245.988 97.4875 218.386 101.933 197.186C102.144 197.285 103.53 197.06 105.414 196.723C105.881 196.625 106.378 196.527 106.905 196.428C107.373 196.33 107.87 196.232 108.367 196.134C108.744 217.263 113.671 243.32 115.178 250.621C117.001 259.48 116.022 340.053 116.022 340.053L126.434 339.73C146.189 274.488 135.762 249.975 135.762 249.975C135.762 249.975 153.874 191.248 147.455 170.539C145.33 163.632 142.709 157.37 140.177 152.106C139.966 151.67 139.77 151.249 139.544 150.842C134.722 141.042 130.337 134.963 130.337 134.963L109.166 137.434L108.97 137.111L108.352 137.224V143.415L105.67 143.289L105.067 143.247L96.282 142.811L95.0765 142.755L87.3915 142.376C87.3915 142.376 82.7804 149.213 76.2105 160.206C75.9694 160.628 75.7132 161.049 75.4721 161.47C73.1365 165.415 70.5748 169.852 67.8926 174.667C57.2692 193.831 60.9007 248.838 60.9007 248.838C60.9007 248.838 45.5608 270.95 51.3171 338.522V338.522Z" fill="#FF8B66"/>
<path d="M123.375 137.238C123.451 137.378 128.906 149.466 140.192 152.106C139.981 151.67 139.785 151.249 139.559 150.842C129.433 147.908 124.49 136.971 124.43 136.845L123.375 137.238V137.238Z" fill="#6097B2"/>
<path d="M75.472 161.47C88.1147 158.943 94.564 146.616 96.2819 142.811C96.5832 142.124 96.7339 141.716 96.749 141.688L95.6791 141.337C95.6791 141.337 95.4682 141.899 95.0764 142.755C93.2681 146.658 87.3462 157.455 76.2104 160.206C75.9693 160.628 75.7131 161.049 75.472 161.47V161.47Z" fill="#6097B2"/>
<path d="M105.429 196.723C105.896 196.625 106.393 196.527 106.92 196.428C108.759 193.269 112.104 186.474 114.847 175.144C118.794 158.831 109.814 141.45 109.723 141.281L108.698 141.744C108.789 141.913 117.604 158.971 113.746 174.92C113.581 175.594 113.415 176.254 113.249 176.885C113.159 177.236 113.068 177.573 112.978 177.91C110.175 188.285 106.905 194.308 105.429 196.723V196.723Z" fill="#6097B2"/>
<path d="M113.551 177.966C113.551 177.966 113.656 177.966 113.716 177.966L113.641 176.913C113.038 176.941 112.345 176.633 111.788 176.043C111.034 175.243 109.437 172.73 110.733 166.538C112.466 158.227 105.866 143.668 105.579 143.05L104.54 143.457C104.6 143.612 111.29 158.339 109.618 166.328C108.277 172.73 109.874 175.594 110.944 176.731C111.682 177.517 112.631 177.966 113.551 177.966Z" fill="#6097B2"/>
<path d="M87.3915 142.376C87.3915 142.376 109.497 149.635 130.352 134.963C130.352 134.963 134.225 60.7926 126.856 55.8226C123.632 53.6465 117.273 55.3874 111.14 58.0409C103.229 61.4665 95.6642 66.3944 95.6642 66.3944C95.6642 66.3944 81.9367 64.5833 71.1174 65.6924C64.231 66.3804 58.535 68.2616 58.2789 72.5156C57.6008 83.4805 87.3915 142.376 87.3915 142.376V142.376Z" fill="#FF8B66"/>
<path d="M70.5297 65.8609C75.1708 65.4116 76.0297 68.6828 80.6709 70.2553C85.3271 71.8417 90.9025 73.0632 93.0121 73.2457C95.1217 73.4282 96.2368 75.8711 96.2368 75.8711C96.2368 75.8711 96.9902 72.5718 98.1355 72.291C99.2505 72.0242 109.09 62.8003 111.14 58.0409C103.229 61.4665 95.6642 66.3944 95.6642 66.3944C95.6642 66.3944 81.9366 64.5833 71.1173 65.6924C70.7406 65.8047 70.5297 65.8609 70.5297 65.8609V65.8609Z" fill="#EF6E4B"/>
<path d="M97.4273 41.8533C97.4273 41.8533 95.6643 61.649 101.586 64.485C101.586 64.485 97.2164 71.9962 85.508 67.4193C85.508 67.4193 87.482 57.2406 79.7367 45.1386C74.5531 37.0378 97.4424 41.8393 97.4424 41.8393L97.4273 41.8533Z" fill="#EF6E4B"/>
<path d="M74.5832 32.2503C74.5832 32.2503 70.1832 27.4909 69.1736 32.6153C67.9982 38.5681 73.649 41.39 74.9449 39.5649C76.2408 37.7398 74.5832 32.2503 74.5832 32.2503V32.2503Z" fill="#FF8B66"/>
<path d="M107.885 34.9319C107.885 34.9319 113.008 30.8464 113.174 36.055C113.37 42.092 107.328 44.0997 106.333 42.1061C105.338 40.1124 107.885 34.9178 107.885 34.9178V34.9319Z" fill="#FF8B66"/>
<path d="M88.9738 55.1066C78.4107 54.3625 72.9709 47.5113 74.5531 28.221C75.3668 18.281 81.3039 12.5529 93.1328 13.3952C104.962 14.2376 109.452 20.6958 108.638 30.6358C106.951 51.3581 99.8986 55.8788 88.9889 55.1066H88.9738Z" fill="#FF8B66"/>
<path d="M104.57 37.2765C104.675 38.2733 103.666 39.1858 102.325 39.3122C100.983 39.4385 99.8081 38.7225 99.7026 37.7117C99.5972 36.7149 100.607 35.8023 101.948 35.676C103.289 35.5496 104.464 36.2656 104.57 37.2765Z" fill="#DB614D"/>
<path d="M82.7956 36.2656C82.6449 37.2624 81.4394 37.9223 80.0983 37.7538C78.7572 37.5713 77.7928 36.6306 77.9435 35.6338C78.0942 34.637 79.2997 33.9772 80.6408 34.1457C81.9819 34.3282 82.9463 35.2688 82.7956 36.2656Z" fill="#DB614D"/>
<path d="M100.818 26.8872C100.607 26.9855 100.335 26.9293 100.185 26.7468C98.8437 25.2165 96.2519 25.0902 96.2368 25.0902C95.9505 25.0902 95.7245 24.8515 95.7245 24.5707C95.7245 24.3039 95.9807 24.0934 96.282 24.0934C96.4026 24.0934 99.3711 24.2478 101.014 26.115C101.194 26.3256 101.164 26.6345 100.938 26.803C100.908 26.8311 100.863 26.8451 100.833 26.8732L100.818 26.8872Z" fill="#0E3944"/>
<path d="M85.508 24.2618C85.4176 24.3039 85.3272 24.318 85.2217 24.3039C85.1916 24.3039 82.6148 24.0653 81.0477 25.385C80.8367 25.5675 80.4902 25.5535 80.2943 25.3429C80.0984 25.1463 80.1134 24.8234 80.3395 24.6409C82.2683 23.0263 85.2066 23.2931 85.3423 23.3071C85.6286 23.3352 85.8395 23.5739 85.8094 23.8547C85.7943 24.0372 85.6738 24.1776 85.508 24.2478V24.2618Z" fill="#0E3944"/>
<path d="M99.2054 32.0818C99.0999 33.3033 98.4369 34.258 97.6985 34.2018C96.9752 34.1456 96.4629 33.1208 96.5533 31.8993C96.6588 30.6779 97.3218 29.7232 98.0602 29.7793C98.7835 29.8355 99.2958 30.8604 99.2054 32.0818Z" fill="#1A4850"/>
<path d="M84.3176 30.9587C84.2121 32.1801 83.5491 33.1348 82.8107 33.0786C82.0874 33.0225 81.5751 31.9976 81.6655 30.7762C81.771 29.5547 82.434 28.6 83.1724 28.6562C83.8957 28.7124 84.408 29.7372 84.3176 30.9587Z" fill="#1A4850"/>
<path d="M85.4629 43.0326C85.4629 43.0326 91.9726 44.3524 95.4986 42.9484C95.4986 42.9484 93.2082 47.3568 89.652 46.6829C86.0958 46.0231 85.4629 43.0186 85.4629 43.0186V43.0326Z" fill="#1A4850"/>
<path d="M95.7094 31.2254C95.7094 31.2254 96.9149 28.2771 98.1656 28.586C99.4163 28.8949 100.17 31.5343 100.17 31.5343L102.114 30.7481L100.215 30.8464C100.215 30.8464 99.4615 28.0806 98.1957 27.9963C96.4026 27.8559 95.6943 31.2254 95.6943 31.2254H95.7094Z" fill="#1A4850"/>
<path d="M85.4177 30.8604C85.4177 30.8604 84.6944 27.7857 83.4135 27.9121C82.1327 28.0384 80.9574 30.5515 80.9574 30.5515L79.1642 29.4986L81.0176 29.8636C81.0176 29.8636 82.2081 27.2382 83.4738 27.3224C85.267 27.4488 85.4327 30.8744 85.4327 30.8744L85.4177 30.8604Z" fill="#1A4850"/>
<path d="M91.1889 38.3715C90.9629 38.4698 90.7067 38.554 90.4204 38.5962L90.2095 37.5572C91.1588 37.3888 91.415 36.8693 91.4602 36.4481C91.5204 35.8725 91.1889 35.2969 90.8424 35.1846C90.6465 35.1144 90.4204 35.2267 90.1944 35.5215L89.2903 34.8757C90.0889 33.907 90.9328 34.0754 91.2643 34.2018C92.1081 34.5107 92.6958 35.5496 92.6054 36.5604C92.5301 37.3888 92.0177 38.0346 91.204 38.3856L91.1889 38.3715Z" fill="#DB614D"/>
<path d="M91.4904 14.1955C91.4904 14.1955 92.1233 21.1872 86.5629 25.5113C86.5629 25.5113 88.8684 21.2152 89.0342 18.4073C89.0342 18.4073 84.5136 25.5956 80.3546 26.2976C76.1957 26.9995 70.1682 29.0774 70.1682 29.0774C70.1682 29.0774 72.8504 12.0755 90.9178 11.0226C108.97 9.9696 112.963 20.4571 109.633 31.9695C109.633 31.9695 102.475 29.0914 101.104 22.4226C101.104 22.4226 102.837 27.5049 93.2835 25.4973C93.2835 25.4973 95.2726 20.1482 91.4753 14.1815L91.4904 14.1955Z" fill="#0E3944"/>
<path d="M152.247 218.119C94.2025 229.379 53.0349 215.157 53.0349 215.157L76.1502 134.977L76.5722 133.531L77.0845 131.72L77.5215 130.204L77.8078 129.249L78.2448 127.747L78.6064 126.469L78.9681 125.206C78.9681 125.206 78.8626 125.122 78.8174 125.08C58.4295 108.527 59.7857 69.7077 59.7857 69.7077C62.2419 65.5941 67.32 65.1449 67.32 65.1449C79.4201 83.1295 97.0053 93.9118 97.0053 93.9118C108.051 83.5928 115.841 54.8679 115.841 54.8679C122.773 52.046 128.363 55.8226 128.363 55.8226C140.373 73.6247 132.552 110.352 131.226 116.08C131.106 116.572 131.045 116.838 131.045 116.838C131.302 117.33 131.558 117.835 131.799 118.341C131.965 118.663 132.13 119 132.296 119.337C132.793 120.348 133.276 121.345 133.743 122.356C134.059 123.016 134.36 123.676 134.647 124.349C135.234 125.627 135.792 126.905 136.334 128.196C155.231 173.024 152.247 218.119 152.247 218.119V218.119Z" fill="#FFB878"/>
<path d="M131.799 118.341L130.563 117.372C129.704 116.712 129.478 116.824 129.026 117.063C128.032 117.554 126.977 117.849 124.822 115.884C124.023 115.14 123.571 115.013 123.39 115.041C123.044 115.041 122.667 115.434 122.245 115.884C121.416 116.754 120.286 117.947 118.116 117.54C116.64 117.274 116.157 117.779 115.555 118.425C114.877 119.141 113.942 120.11 111.848 119.014C110.778 118.467 109.919 118.804 108.593 119.394C107.146 120.039 105.368 120.84 103.198 119.436C102.656 119.071 102.445 119.113 102.43 119.113C102.249 119.155 101.978 119.646 101.797 119.997C101.39 120.741 100.878 121.682 99.7477 122.005C98.8435 122.272 97.7435 122.047 96.3723 121.345C94.2175 120.222 93.5996 121.022 92.59 122.342C91.5955 123.648 90.2393 125.431 87.0297 124.167C84.9804 123.367 84.4228 123.914 83.5036 124.827C82.6899 125.627 81.7406 126.568 79.7967 126.568C79.4351 126.568 79.0433 126.54 78.6063 126.469L78.968 125.206C78.968 125.206 78.8625 125.122 78.8173 125.08C80.8365 125.431 81.5749 124.7 82.4036 123.872C83.3831 122.903 84.5886 121.696 87.6174 122.875C89.7119 123.704 90.375 122.833 91.3695 121.528C92.3791 120.208 93.7805 118.383 97.1106 120.124C98.06 120.615 98.8285 120.812 99.3107 120.671C99.823 120.517 100.124 119.955 100.441 119.365C100.802 118.706 101.209 117.947 102.053 117.751C102.656 117.611 103.304 117.793 104.072 118.284C105.504 119.211 106.574 118.734 107.93 118.13C109.271 117.526 110.778 116.852 112.586 117.793C113.626 118.341 113.807 118.13 114.425 117.498C115.088 116.796 116.082 115.729 118.418 116.164C119.729 116.403 120.377 115.743 121.115 114.957C121.688 114.353 122.351 113.665 123.33 113.637C124.068 113.609 124.927 114.002 125.877 114.873C127.414 116.277 127.806 116.08 128.303 115.828C129.041 115.448 129.885 115.154 131.226 116.08C131.106 116.572 131.045 116.838 131.045 116.838C131.301 117.33 131.558 117.835 131.799 118.341V118.341Z" fill="#F2A668"/>
<path d="M134.647 124.349C134.345 124.055 134.014 123.718 133.652 123.339C132.899 122.552 132.115 121.724 131.226 121.106C129.523 119.885 127.986 120.376 126.856 120.741C125.832 121.078 125.319 121.205 124.716 120.755C123.3 119.66 122.336 120.376 121.748 120.797C121.145 121.233 120.784 121.499 119.714 120.938C117.649 119.843 116.233 121.556 115.283 122.665C114.138 124.041 113.897 124.069 113.536 123.802C112.209 122.833 111.064 123.226 110.07 123.577C108.909 123.984 107.824 124.364 105.835 123.17C104.6 122.44 103.515 122.44 102.566 122.777C103.65 121.977 104.178 121.78 104.977 122.342C106.92 123.718 108.488 122.946 109.753 122.314C110.914 121.752 111.682 121.415 112.707 121.935C113.867 122.524 114.696 122.215 115.178 121.85C115.705 121.457 116.052 120.854 116.383 120.278C116.7 119.759 117.047 119.155 117.378 119.085C117.559 119.029 117.89 119.155 118.282 119.422C119.096 119.983 119.804 120.208 120.437 120.096C121.251 119.969 121.703 119.365 122.019 118.916C122.185 118.706 122.396 118.397 122.531 118.383C122.577 118.383 122.848 118.397 123.511 118.902C125.651 120.587 126.962 120.011 127.941 119.576C128.619 119.281 129.026 119.099 129.795 119.478C131.06 120.096 132.597 121.345 133.743 122.356C133.275 121.345 132.793 120.348 132.296 119.337C131.693 118.902 131.075 118.509 130.503 118.228C129.056 117.526 128.032 117.976 127.293 118.312C126.434 118.678 125.877 118.93 124.475 117.835C123.647 117.175 122.968 116.923 122.321 116.993C121.537 117.091 121.115 117.667 120.784 118.13C120.573 118.411 120.362 118.692 120.181 118.72C120.121 118.734 119.819 118.734 119.156 118.284C118.388 117.765 117.694 117.568 117.047 117.709C116.037 117.919 115.525 118.818 115.057 119.618C114.801 120.067 114.53 120.545 114.244 120.755C114.123 120.84 113.957 120.966 113.43 120.699C111.637 119.801 110.205 120.503 109.045 121.078C107.749 121.71 107.011 122.019 105.881 121.219C103.967 119.885 102.445 121.05 101.209 121.977C99.9285 122.946 98.8285 123.788 97.1107 122.903C94.4887 121.57 93.1476 122.903 92.0777 123.97C91.0983 124.939 90.3147 125.697 88.5517 125.192C84.6338 124.069 83.2324 125.978 82.1023 127.494C81.7557 127.972 81.4242 128.421 81.0324 128.758C80.8516 128.912 80.6707 128.983 80.4146 128.954C79.7666 128.912 78.9228 128.337 78.2447 127.747L77.8077 129.249C78.5159 129.797 79.4201 130.288 80.3091 130.358H80.4899C81.0776 130.358 81.6201 130.162 82.0571 129.783C82.5694 129.348 82.9612 128.814 83.353 128.295C84.4078 126.863 85.2516 125.725 88.1147 126.54C90.7668 127.298 92.1531 125.936 93.1627 124.925C94.2024 123.886 94.7901 123.325 96.3874 124.139C97.8942 124.911 99.1299 124.757 100.17 124.307C99.9888 124.476 99.823 124.63 99.6573 124.771C98.0449 126.245 97.412 126.61 96.5682 126.02C94.5791 124.616 92.9216 125.81 91.5805 126.778C90.0133 127.901 88.9736 128.519 87.4516 127.719C86.4873 127.228 85.6283 127.101 84.89 127.34C83.6242 127.761 83.0516 129.137 82.5393 130.33C82.1776 131.201 81.7708 132.198 81.3036 132.198C80.1283 132.198 78.5913 131.131 77.5214 130.204L77.0844 131.72C78.2598 132.633 79.8269 133.602 81.3036 133.602C82.1625 133.602 82.7201 133.11 83.142 132.45C83.0817 132.577 83.0064 132.689 82.931 132.815C82.4338 133.686 81.9516 134.514 81.2283 134.837C80.0228 135.37 78.0488 134.472 76.5721 133.531L76.1501 134.977C77.3858 135.707 78.9529 136.395 80.3995 136.395C80.9118 136.395 81.4091 136.311 81.8762 136.101C83.0516 135.581 83.6845 134.458 84.2571 133.475C84.7694 132.605 85.2516 131.776 85.9297 131.608C86.427 131.468 87.1503 131.678 88.0544 132.198C89.1695 132.843 90.1037 133.04 90.9325 132.801C92.1229 132.464 92.6654 131.299 93.1024 130.372C93.2983 129.937 93.6298 129.221 93.8558 129.165C93.9161 129.151 94.0668 129.179 94.3832 129.376C96.5983 130.822 98.4216 129.474 99.5066 128.66C99.808 128.435 100.32 128.14 100.441 128.084C100.561 128.224 100.953 128.716 101.586 128.632C102.204 128.603 102.535 128.098 102.792 127.705C102.957 127.466 103.168 127.143 103.334 127.115C103.44 127.115 103.696 127.171 104.087 127.438C105.73 128.632 107.056 127.93 108.126 127.382C109.075 126.877 109.829 126.483 110.959 127.031C114.455 128.716 116.218 127.691 118.071 125.36C118.659 124.616 119.427 124.715 120.663 124.939C121.763 125.122 123.421 125.416 124.084 123.76C124.174 123.535 124.249 123.451 124.279 123.437C124.46 123.367 125.138 123.676 125.545 123.872C126.57 124.321 127.821 124.897 129.162 124.42C129.689 124.223 131.166 125.248 132.236 125.992C133.441 126.82 134.903 127.817 136.334 128.196C135.792 126.905 135.234 125.627 134.647 124.349V124.349ZM123.722 122.145C123.24 122.314 122.893 122.707 122.667 123.282C122.486 123.718 122.305 123.788 120.934 123.549C119.714 123.339 118.026 123.044 116.851 124.518C115.238 126.568 114.259 127.045 111.652 125.782C109.798 124.883 108.397 125.627 107.387 126.161C106.333 126.708 105.835 126.919 105.007 126.329C104.298 125.824 103.666 125.641 103.063 125.725C102.249 125.866 101.812 126.526 101.511 126.975C101.511 126.975 101.481 127.017 101.466 127.045C100.486 126.132 99.3258 126.989 98.5573 127.565C97.3066 128.505 96.4476 129.011 95.2421 128.224C94.5942 127.803 93.9915 127.663 93.449 127.817C92.5298 128.056 92.1229 128.94 91.7161 129.811C91.3695 130.541 91.0079 131.313 90.4805 131.468C90.0133 131.594 89.3352 131.285 88.853 131.018C87.5571 130.26 86.4722 130.007 85.5379 130.246C84.5283 130.499 83.9105 131.243 83.3831 132.071C83.5941 131.678 83.7749 131.257 83.9406 130.85C84.3324 129.923 84.7694 128.87 85.3872 128.66C85.7188 128.561 86.1557 128.66 86.6982 128.94C89.1996 130.26 91.0983 128.884 92.4997 127.887C94.0216 126.792 94.6846 126.441 95.6641 127.143C97.6682 128.561 99.3559 127.017 100.712 125.782C102.355 124.279 103.44 123.423 105.022 124.349C107.644 125.922 109.346 125.332 110.597 124.897C111.546 124.56 111.968 124.448 112.601 124.911C114.289 126.132 115.6 124.574 116.474 123.535C117.649 122.131 118.177 121.738 118.975 122.159C120.934 123.184 122.019 122.384 122.682 121.907C123.24 121.499 123.285 121.471 123.767 121.836C123.888 121.935 124.008 122.005 124.129 122.075C123.993 122.089 123.858 122.089 123.722 122.145V122.145ZM128.619 123.114C127.896 123.367 127.037 122.974 126.208 122.609C126.073 122.538 125.937 122.482 125.816 122.426C126.359 122.384 126.871 122.23 127.353 122.075C128.408 121.724 129.252 121.457 130.322 122.215C131.075 122.763 131.814 123.535 132.522 124.279L132.974 124.743C131.317 123.605 129.885 122.651 128.619 123.114V123.114Z" fill="#F2A668"/>
<path d="M109.136 55.3032C109.136 55.3032 108.171 64.9202 113.716 74.5373C124.49 93.2379 125.349 115.378 125.349 115.378C134.782 113.104 141.639 118.86 141.639 118.86C141.639 118.86 141.367 82.1186 129.523 53.829C129.523 53.829 119.216 52.2566 109.136 55.3172V55.3032Z" fill="#F24052"/>
<path d="M75.4722 64.0498C75.4722 64.0498 79.9174 74.0038 72.9557 92.8167C67.5159 107.488 64.6529 130.443 64.6529 130.443C58.2637 132.31 56.561 136.845 56.561 136.845C51.8596 108.274 62.9802 111.602 56.7569 68.9075C56.7569 68.9075 65.2405 62.5756 75.4722 64.0498V64.0498Z" fill="#F24052"/>
<path d="M75.4722 64.0498C75.4722 64.0498 68.3899 61.1577 63.5378 68.9075C63.5378 68.9075 71.69 76.5029 73.7393 84.7581L64.5324 91.1601C64.5324 91.1601 66.7927 99.6821 67.1392 112.57C67.1392 112.57 83.8203 75.6324 75.4722 64.0498V64.0498Z" fill="#CE364C"/>
<path d="M109.136 55.3032C109.136 55.3032 114.214 51.5827 123.376 60.2451C123.376 60.2451 115.073 67.1245 116.248 74.5514C116.248 74.5514 123.24 74.9866 127.504 78.4965C127.504 78.4965 123.918 89.9667 122.577 95.8072C122.577 95.8072 116.278 80.1952 112.225 74.5373C108.171 68.8934 109.136 55.3032 109.136 55.3032V55.3032Z" fill="#CE364C"/>
<path d="M28.5784 89.4192C28.5784 89.4192 23.2291 107.474 14.1879 107.783C14.1879 107.783 18.1509 142.938 32.2703 144.286C32.2703 144.286 41.1005 129.825 38.1922 116.852C35.284 103.88 33.2196 105.284 33.2196 105.284L28.5935 89.4192H28.5784Z" fill="#CE364C"/>
</g>
</svg>
