<svg width="35" height="56" viewBox="0 0 35 56" fill="none" xmlns="http://www.w3.org/2000/svg">
<g opacity="0.7" clip-path="url(#clip0_209_850)">
<path fill-rule="evenodd" clip-rule="evenodd" d="M9.87759 27.951C7.62218 28.1307 3.06198 28.147 0.740717 28.0327C0.617347 28.0266 0.497346 27.9907 0.391175 27.928C0.285004 27.8654 0.195886 27.7779 0.131592 27.6733C0.720197 28.6326 1.39814 29.535 2.15652 30.3687C2.70968 31.097 3.34488 31.7602 4.04975 32.3454C5.05398 32.3454 6.48625 32.4271 7.9679 32.4271C8.59349 30.8915 9.25201 29.3886 9.89406 27.951H9.87759Z" fill="url(#paint0_radial_209_850)"/>
<path fill-rule="evenodd" clip-rule="evenodd" d="M31.2794 1.63363C28.1021 6.66514 24.1181 12.6278 20.6609 17.643C22.4718 17.5613 24.826 17.5123 26.9991 17.4959C29.6002 13.6406 32.3001 9.55662 34.572 5.94635C34.6236 5.82771 34.6503 5.69985 34.6503 5.57062C34.6503 5.44139 34.6236 5.31353 34.572 5.19489C33.5478 3.60955 32.3913 2.11227 31.1148 0.718811H31.2794C31.3783 0.851121 31.4317 1.01149 31.4317 1.17622C31.4317 1.34095 31.3783 1.50132 31.2794 1.63363Z" fill="url(#paint1_radial_209_850)"/>
<path fill-rule="evenodd" clip-rule="evenodd" d="M31.5592 18.8845C23.4697 29.2924 14.7966 39.2404 5.58085 48.6814C4.32968 49.9556 2.28829 51.9486 1.76147 51.6546C1.94257 52.014 4.56016 55.4609 5.05404 55.951C5.48208 56.196 7.62225 54.3174 8.87342 52.9942C18.0887 43.5527 26.7619 33.6047 34.8518 23.1972C34.9181 23.0711 34.9528 22.931 34.9528 22.7888C34.9528 22.6466 34.9181 22.5064 34.8518 22.3804C34.8518 22.217 34.8518 22.2824 34.8518 22.2334C34.4731 21.6453 32.2507 18.7048 31.5592 18.0023C31.6386 18.124 31.6808 18.2658 31.6808 18.4107C31.6808 18.5556 31.6386 18.6975 31.5592 18.8191V18.8845Z" fill="url(#paint2_radial_209_850)"/>
<path style="mix-blend-mode:multiply" opacity="0.5" fill-rule="evenodd" clip-rule="evenodd" d="M31.1475 1.89497C31.9829 2.57683 32.6006 3.48491 32.9255 4.50874C33.37 7.85763 30.1268 12.2684 28.3488 14.7351C27.9611 15.4283 27.4383 16.038 26.8108 16.5288C26.1834 17.0196 25.4639 17.3816 24.6941 17.5939H26.933C29.5342 13.7386 32.2341 9.65459 34.5059 6.04433C34.5576 5.92569 34.5842 5.79783 34.5842 5.6686C34.5842 5.53937 34.5576 5.4115 34.5059 5.29287C33.5126 3.67773 32.3777 2.15258 31.1146 0.735107H31.2792C31.3743 0.865894 31.4255 1.02307 31.4255 1.18435C31.4255 1.34562 31.3743 1.5028 31.2792 1.63359L31.1475 1.82962V1.89497Z" fill="url(#paint3_radial_209_850)"/>
<path style="mix-blend-mode:multiply" opacity="0.5" fill-rule="evenodd" clip-rule="evenodd" d="M34.8518 22.2334C34.5719 21.7269 32.9256 19.5052 31.9708 18.4271C33.7488 22.119 33.7488 23.4422 31.3287 26.5951C28.3325 30.5974 25.2539 34.5344 22.0272 38.3407C19.0639 41.8366 15.9854 45.2182 12.7751 48.4527C11.3143 49.9057 9.72781 51.2285 8.03381 52.4061C7.29875 53.0041 6.40249 53.3742 5.45685 53.4701C4.51121 53.5659 3.55806 53.3834 2.71631 52.9452C3.57238 54.0887 4.67539 55.5262 4.97172 55.8203C5.39975 56.0653 7.53992 54.1867 8.7911 52.8635C18.0307 43.4665 26.7313 33.5622 34.8518 23.1972C34.9181 23.0711 34.9528 22.931 34.9528 22.7888C34.9528 22.6466 34.9181 22.5065 34.8518 22.3804C34.8518 22.217 34.8518 22.2824 34.8518 22.2334Z" fill="url(#paint4_radial_209_850)"/>
<path style="mix-blend-mode:screen" d="M7.35873 54.4644C7.3573 54.4651 7.35587 54.4659 7.35443 54.4666C6.35693 55.3571 5.34834 56.1132 5.0704 55.951C4.57651 55.4609 1.95892 52.014 1.77783 51.6546C2.0577 51.8506 3.01254 51.0828 4.00032 50.217C3.89243 50.4386 3.8364 50.6815 3.8364 50.9276C3.8364 51.1737 3.89243 51.4167 4.00032 51.6383V51.7689C4.68983 52.7672 5.45482 53.7119 6.28865 54.5951C6.51826 54.7741 6.9766 54.6613 7.35443 54.4666C7.36135 54.4604 7.36828 54.4543 7.3752 54.4481L7.35873 54.4644Z" fill="url(#paint5_radial_209_850)"/>
<path fill-rule="evenodd" clip-rule="evenodd" d="M14.0263 0.57176C19.5479 -0.161543 25.1415 -0.188994 30.6702 0.49008C30.8019 0.510446 30.9265 0.562884 31.0328 0.642704C31.1391 0.722525 31.2238 0.827241 31.2793 0.947489C31.3329 1.05402 31.3609 1.17147 31.3609 1.29055C31.3609 1.40963 31.3329 1.52707 31.2793 1.6336C28.102 6.66511 24.118 12.6278 20.6608 17.6429C23.7393 17.4959 28.4313 17.4469 31.0159 17.5449C31.1631 17.548 31.3063 17.5927 31.4288 17.6737C31.5512 17.7547 31.6479 17.8687 31.7074 18.0023C31.7867 18.124 31.829 18.2658 31.829 18.4107C31.829 18.5557 31.7867 18.6975 31.7074 18.8191C23.5719 29.2533 14.8492 39.2233 5.58083 48.6814C4.32965 49.9557 2.28826 51.9487 1.76145 51.6546C1.23464 51.3606 1.97547 49.1225 2.25534 47.979C4.36802 41.1502 6.91387 34.4608 9.87763 27.951C7.62222 28.1307 3.06202 28.147 0.740755 28.0327C0.617385 28.0266 0.497383 27.9907 0.391212 27.928C0.285041 27.8654 0.195924 27.7779 0.131629 27.6733C0.0540585 27.5787 0.00140695 27.4665 -0.0215838 27.3467C-0.0445746 27.227 -0.0371825 27.1034 -7.32578e-05 26.9872C3.47324 17.9782 7.84673 9.3369 13.055 1.19253C13.2858 0.86894 13.6339 0.646498 14.0263 0.57176Z" fill="url(#paint6_radial_209_850)"/>
<path style="mix-blend-mode:multiply" fill-rule="evenodd" clip-rule="evenodd" d="M29.9623 13.0688C27.7234 15.0618 23.3772 16.3361 22.4553 15.0292C21.8297 15.9603 21.2041 16.8588 20.595 17.741C22.4059 17.6593 24.7601 17.6103 26.9332 17.5939C27.9868 16.0747 28.9581 14.5554 29.9623 13.0688Z" fill="url(#paint7_radial_209_850)"/>
<path style="mix-blend-mode:multiply" fill-rule="evenodd" clip-rule="evenodd" d="M6.66749 28.0817C7.88574 29.0292 6.00898 31.986 3.53955 31.937C3.77003 32.182 3.96758 32.3454 4.0499 32.3454C5.05413 32.3454 6.4864 32.4271 7.96805 32.4271C8.59364 30.8915 9.25216 29.3886 9.89421 27.951C9.0546 27.951 7.9022 28.0653 6.60164 28.0817H6.66749Z" fill="url(#paint8_radial_209_850)"/>
<path style="mix-blend-mode:screen" fill-rule="evenodd" clip-rule="evenodd" d="M14.3225 4.26371C18.2534 3.69471 22.2398 3.60693 26.1922 4.00233C26.7125 4.05114 27.2087 4.24354 27.6245 4.55776C28.4147 5.2112 27.8879 6.64877 27.1964 7.90665C28.5958 5.76663 29.9622 3.65928 31.2792 1.6336C31.3441 1.51885 31.3782 1.38946 31.3782 1.25787C31.3782 1.12628 31.3441 0.996903 31.2792 0.882145C31.2156 0.774103 31.1274 0.682356 31.0216 0.614267C30.9158 0.546179 30.7954 0.503645 30.6701 0.49008C25.1414 -0.188994 19.5478 -0.161543 14.0262 0.57176C13.6338 0.646499 13.2857 0.86894 13.0549 1.19253C10.6173 4.86165 8.41782 8.68113 6.46973 12.6278C8.23125 9.80163 11.7543 4.67211 14.3225 4.26371Z" fill="url(#paint9_radial_209_850)"/>
<path style="mix-blend-mode:screen" fill-rule="evenodd" clip-rule="evenodd" d="M30.95 17.6103C30.1269 17.6103 29.0568 17.6103 27.9044 17.6103C29.847 18.2311 29.847 19.636 28.283 21.6616C24.1015 27.0525 12.9561 40.5134 7.49048 44.5321C4.72472 46.5414 3.81927 45.2672 3.72049 43.4866C3.02905 45.4143 2.5187 47.0315 2.2553 48.0934C1.99189 49.1552 1.3663 51.3606 1.69556 51.72C1.97543 51.867 2.93027 51.1482 3.91804 50.2824C4.47778 49.776 5.05398 49.2206 5.56433 48.7468C14.3555 39.7346 22.6484 30.2567 30.4068 20.3547L31.5592 18.8845C31.6385 18.7629 31.6808 18.621 31.6808 18.4761C31.6808 18.3312 31.6385 18.1894 31.5592 18.0677C31.4933 17.9511 31.3979 17.8536 31.2824 17.7849C31.1669 17.7161 31.0353 17.6785 30.9006 17.6756L30.95 17.6103Z" fill="url(#paint10_radial_209_850)"/>
<path style="mix-blend-mode:screen" fill-rule="evenodd" clip-rule="evenodd" d="M14.8165 1.02916C14.3925 1.11965 14.0039 1.32951 13.697 1.63359C10.9971 4.32904 4.46137 17.0222 3.50653 20.3874C3.50653 20.6161 3.35836 21.0082 3.50653 21.1715C3.65469 21.3349 4.16504 20.8285 4.3132 20.5998C6.71678 16.8261 8.87341 12.9055 11.2441 9.16451C12.4788 7.20419 13.8946 5.03149 15.261 3.2672C16.3024 2.29905 17.6185 1.67176 19.031 1.47023C20.8254 0.980149 20.1011 0.539075 18.8005 0.588083C17.4632 0.635784 16.1315 0.783224 14.8165 1.02916Z" fill="url(#paint11_linear_209_850)"/>
<path style="mix-blend-mode:screen" fill-rule="evenodd" clip-rule="evenodd" d="M30.0611 17.839C27.1307 17.839 24.1674 17.839 21.237 17.9533C19.8048 17.9533 20.9078 19.4726 21.912 19.5869C24.6418 19.6585 27.3654 19.2944 29.9788 18.5088C30.2257 18.5088 30.5879 18.3291 30.6209 18.084C30.6538 17.839 30.2587 17.888 30.0611 17.888V17.839Z" fill="url(#paint12_linear_209_850)"/>
<path style="mix-blend-mode:screen" opacity="0.5" fill-rule="evenodd" clip-rule="evenodd" d="M4.93882 49.3839C4.75773 52.5694 12.1331 46.6884 13.8123 45.1528C19.492 39.9906 26.2747 32.8191 30.127 26.1213C31.4605 23.8016 31.6251 20.8284 29.666 21.3512C22.1755 30.8046 14.1968 39.8669 5.76197 48.5017L5.58088 48.6814L4.93882 49.3839Z" fill="url(#paint13_radial_209_850)"/>
<path style="mix-blend-mode:screen" fill-rule="evenodd" clip-rule="evenodd" d="M15.1621 6.76312C14.3682 7.31256 13.6912 8.01203 13.1701 8.82147C10.4538 13.4119 8.1325 18.231 5.64661 22.9522C5.13626 23.9323 4.56006 25.811 6.4039 25.9743C8.577 26.1704 10.7501 25.9743 12.989 25.9743C10.4408 30.8052 8.24563 35.8115 6.42037 40.9545C5.95941 42.5881 7.25997 42.5881 8.28067 41.6243C13.022 37.2462 21.4016 28.2287 24.6941 22.4947C25.5831 20.9918 24.085 20.273 22.8338 20.224C21.0229 20.224 19.1955 20.224 17.3846 20.224C19.4919 16.8098 21.7143 13.4609 23.7228 9.99766C24.0139 9.49541 24.1987 8.93956 24.2661 8.36406C24.3131 7.96885 24.261 7.56824 24.1146 7.19777C23.9681 6.82731 23.7318 6.49845 23.4265 6.24037C22.4881 5.37456 19.9199 5.34189 17.7962 5.75029C16.8673 5.88434 15.9763 6.20688 15.1786 6.69778L15.1621 6.76312Z" fill="url(#paint14_radial_209_850)"/>
<g style="mix-blend-mode:color">
<rect x="-1" width="37" height="14" fill="white"/>
</g>
</g>
<defs>
<radialGradient id="paint0_radial_209_850" cx="0" cy="0" r="1" gradientUnits="userSpaceOnUse" gradientTransform="translate(-2.68355 25.1085) scale(14.5202 14.4084)">
<stop stop-color="#00BDFC"/>
<stop offset="1" stop-color="#0061BD"/>
</radialGradient>
<radialGradient id="paint1_radial_209_850" cx="0" cy="0" r="1" gradientUnits="userSpaceOnUse" gradientTransform="translate(25.9125 4.50878) scale(35.5597 35.2859)">
<stop stop-color="#00BDFC"/>
<stop offset="1" stop-color="#0061BD"/>
</radialGradient>
<radialGradient id="paint2_radial_209_850" cx="0" cy="0" r="1" gradientUnits="userSpaceOnUse" gradientTransform="translate(31.8062 45.8716) scale(66.8391 66.3244)">
<stop stop-color="#0061BD"/>
<stop offset="1" stop-color="#00BDFC"/>
</radialGradient>
<radialGradient id="paint3_radial_209_850" cx="0" cy="0" r="1" gradientUnits="userSpaceOnUse" gradientTransform="translate(23.3112 1.81329) scale(17.4835 17.3489)">
<stop stop-color="white"/>
<stop offset="0.11" stop-color="#F9FAFB"/>
<stop offset="0.26" stop-color="#E9ECF1"/>
<stop offset="0.42" stop-color="#CFD5DF"/>
<stop offset="0.6" stop-color="#AAB6C6"/>
<stop offset="0.79" stop-color="#7A8DA6"/>
<stop offset="0.98" stop-color="#415B80"/>
<stop offset="1" stop-color="#3C577D"/>
</radialGradient>
<radialGradient id="paint4_radial_209_850" cx="0" cy="0" r="1" gradientUnits="userSpaceOnUse" gradientTransform="translate(3.9181 22.1027) scale(37.2225 36.9358)">
<stop stop-color="white"/>
<stop offset="0.11" stop-color="#F9FAFB"/>
<stop offset="0.26" stop-color="#E9ECF1"/>
<stop offset="0.42" stop-color="#CFD5DF"/>
<stop offset="0.6" stop-color="#AAB6C6"/>
<stop offset="0.79" stop-color="#7A8DA6"/>
<stop offset="0.98" stop-color="#415B80"/>
<stop offset="1" stop-color="#3C577D"/>
</radialGradient>
<radialGradient id="paint5_radial_209_850" cx="0" cy="0" r="1" gradientUnits="userSpaceOnUse" gradientTransform="translate(20.068 37.9813) scale(23.9864 23.8016)">
<stop offset="0.58"/>
<stop offset="0.74" stop-color="#000202"/>
<stop offset="0.79" stop-color="#000909"/>
<stop offset="0.83" stop-color="#001414"/>
<stop offset="0.87" stop-color="#002525"/>
<stop offset="0.89" stop-color="#003B3B"/>
<stop offset="0.92" stop-color="#005757"/>
<stop offset="0.94" stop-color="#007777"/>
<stop offset="0.96" stop-color="#009D9D"/>
<stop offset="0.98" stop-color="#00C8C8"/>
<stop offset="1" stop-color="#00FFFF"/>
</radialGradient>
<radialGradient id="paint6_radial_209_850" cx="0" cy="0" r="1" gradientUnits="userSpaceOnUse" gradientTransform="translate(11.9355 0.588096) scale(51.6933 51.2952)">
<stop stop-color="#00F9FC"/>
<stop offset="1" stop-color="#0081FC"/>
</radialGradient>
<radialGradient id="paint7_radial_209_850" cx="0" cy="0" r="1" gradientUnits="userSpaceOnUse" gradientTransform="translate(19.4261 9.80164) scale(13.6312 13.5263)">
<stop stop-color="white"/>
<stop offset="0.11" stop-color="#F9FAFB"/>
<stop offset="0.26" stop-color="#E9ECF1"/>
<stop offset="0.42" stop-color="#CFD5DF"/>
<stop offset="0.6" stop-color="#AAB6C6"/>
<stop offset="0.79" stop-color="#7A8DA6"/>
<stop offset="0.98" stop-color="#415B80"/>
<stop offset="1" stop-color="#3C577D"/>
</radialGradient>
<radialGradient id="paint8_radial_209_850" cx="0" cy="0" r="1" gradientUnits="userSpaceOnUse" gradientTransform="translate(3.6054 28.1634) scale(13.088 12.9872)">
<stop stop-color="white"/>
<stop offset="0.11" stop-color="#F9FAFB"/>
<stop offset="0.26" stop-color="#E9ECF1"/>
<stop offset="0.42" stop-color="#CFD5DF"/>
<stop offset="0.6" stop-color="#AAB6C6"/>
<stop offset="0.79" stop-color="#7A8DA6"/>
<stop offset="0.98" stop-color="#415B80"/>
<stop offset="1" stop-color="#3C577D"/>
</radialGradient>
<radialGradient id="paint9_radial_209_850" cx="0" cy="0" r="1" gradientUnits="userSpaceOnUse" gradientTransform="translate(25.9123 11.8763) scale(27.4271 27.2159)">
<stop/>
<stop offset="0.08" stop-color="#002323"/>
<stop offset="0.22" stop-color="#005C5C"/>
<stop offset="0.36" stop-color="#008E8E"/>
<stop offset="0.5" stop-color="#00B7B7"/>
<stop offset="0.64" stop-color="#00D6D6"/>
<stop offset="0.77" stop-color="#00EDED"/>
<stop offset="0.89" stop-color="#00FAFA"/>
<stop offset="1" stop-color="#00FFFF"/>
</radialGradient>
<radialGradient id="paint10_radial_209_850" cx="0" cy="0" r="1" gradientUnits="userSpaceOnUse" gradientTransform="translate(39.9717 68.056) scale(55.1505 54.7258)">
<stop stop-color="#00FFFF"/>
<stop offset="0.11" stop-color="#00FAFA"/>
<stop offset="0.23" stop-color="#00EDED"/>
<stop offset="0.36" stop-color="#00D6D6"/>
<stop offset="0.5" stop-color="#00B7B7"/>
<stop offset="0.64" stop-color="#008E8E"/>
<stop offset="0.78" stop-color="#005C5C"/>
<stop offset="0.92" stop-color="#002323"/>
<stop offset="1"/>
</radialGradient>
<linearGradient id="paint11_linear_209_850" x1="17.8621" y1="-1.42125" x2="2.59022" y2="27.95" gradientUnits="userSpaceOnUse">
<stop stop-color="#A1E1FF"/>
<stop offset="1"/>
</linearGradient>
<linearGradient id="paint12_linear_209_850" x1="20.5456" y1="18.6885" x2="30.6209" y2="18.6885" gradientUnits="userSpaceOnUse">
<stop stop-color="#A1E1FF"/>
<stop offset="1"/>
</linearGradient>
<radialGradient id="paint13_radial_209_850" cx="0" cy="0" r="1" gradientUnits="userSpaceOnUse" gradientTransform="translate(0.724337 11.8926) scale(40.3175 40.007)">
<stop stop-color="#00FFFF"/>
<stop offset="0.11" stop-color="#00FAFA"/>
<stop offset="0.23" stop-color="#00EDED"/>
<stop offset="0.36" stop-color="#00D6D6"/>
<stop offset="0.5" stop-color="#00B7B7"/>
<stop offset="0.64" stop-color="#008E8E"/>
<stop offset="0.78" stop-color="#005C5C"/>
<stop offset="0.92" stop-color="#002323"/>
<stop offset="1"/>
</radialGradient>
<radialGradient id="paint14_radial_209_850" cx="0" cy="0" r="1" gradientUnits="userSpaceOnUse" gradientTransform="translate(-7.6389 6.66511) scale(38.1115 37.818)">
<stop stop-color="#00FFFF"/>
<stop offset="0.11" stop-color="#00FAFA"/>
<stop offset="0.23" stop-color="#00EDED"/>
<stop offset="0.36" stop-color="#00D6D6"/>
<stop offset="0.5" stop-color="#00B7B7"/>
<stop offset="0.64" stop-color="#008E8E"/>
<stop offset="0.78" stop-color="#005C5C"/>
<stop offset="0.92" stop-color="#002323"/>
<stop offset="1"/>
</radialGradient>
<clipPath id="clip0_209_850">
<rect width="35" height="56" fill="white"/>
</clipPath>
</defs>
</svg>
