<svg width="305" height="99" viewBox="0 0 305 99" fill="none" xmlns="http://www.w3.org/2000/svg">
<rect x="243" y="88.5104" width="13.4497" height="13.4497" rx="2" transform="rotate(-45 243 88.5104)" fill="#CE6328" fill-opacity="0.6"/>
<mask id="path-2-inside-1_811_366" fill="white">
<path d="M17 45.5C17 50.1944 13.1944 54 8.5 54C3.80558 54 0 50.1944 0 45.5C0 40.8056 3.80558 37 8.5 37C13.1944 37 17 40.8056 17 45.5Z"/>
</mask>
<path d="M13 45.5C13 47.9853 10.9853 50 8.5 50V58C15.4036 58 21 52.4036 21 45.5H13ZM8.5 50C6.01472 50 4 47.9853 4 45.5H-4C-4 52.4036 1.59644 58 8.5 58V50ZM4 45.5C4 43.0147 6.01472 41 8.5 41V33C1.59644 33 -4 38.5964 -4 45.5H4ZM8.5 41C10.9853 41 13 43.0147 13 45.5H21C21 38.5964 15.4036 33 8.5 33V41Z" fill="#CE6328" fill-opacity="0.6" mask="url(#path-2-inside-1_811_366)"/>
<mask id="path-4-inside-2_811_366" fill="white">
<path d="M305 72.5C305 77.1944 301.194 81 296.5 81C291.806 81 288 77.1944 288 72.5C288 67.8056 291.806 64 296.5 64C301.194 64 305 67.8056 305 72.5Z"/>
</mask>
<path d="M301 72.5C301 74.9853 298.985 77 296.5 77V85C303.404 85 309 79.4036 309 72.5H301ZM296.5 77C294.015 77 292 74.9853 292 72.5H284C284 79.4036 289.596 85 296.5 85V77ZM292 72.5C292 70.0147 294.015 68 296.5 68V60C289.596 60 284 65.5964 284 72.5H292ZM296.5 68C298.985 68 301 70.0147 301 72.5H309C309 65.5964 303.404 60 296.5 60V68Z" fill="#CE6328" fill-opacity="0.6" mask="url(#path-4-inside-2_811_366)"/>
<rect x="28.8" y="6.00001" width="3.4" height="17" rx="1.7" fill="#DF9F7C"/>
<rect x="22" y="16.2" width="3.4" height="17" rx="1.7" transform="rotate(-90 22 16.2)" fill="#DF9F7C"/>
<rect x="239.985" y="5.82306" width="2.6" height="13" rx="1.3" transform="rotate(-45 239.985 5.82306)" fill="#DF9F7C"/>
<rect x="241.823" y="15.0154" width="2.6" height="13" rx="1.3" transform="rotate(-135 241.823 15.0154)" fill="#DF9F7C"/>
<rect x="53.79" y="85.6849" width="2.6799" height="13.3995" rx="1.33995" transform="rotate(-45 53.79 85.6849)" fill="#DF9F7C"/>
<rect x="55.6849" y="95.1598" width="2.6799" height="13.3995" rx="1.33995" transform="rotate(-135 55.6849 95.1598)" fill="#DF9F7C"/>
</svg>
