<svg width="305" height="99" viewBox="0 0 305 99" fill="none" xmlns="http://www.w3.org/2000/svg">
<path d="M104.637 64.293L108.035 49.9375H109.934L110.367 52.3281L106.746 67H104.707L104.637 64.293ZM102.891 49.9375L105.703 64.293L105.469 67H103.195L99.4102 49.9375H102.891ZM113.355 64.2344L116.133 49.9375H119.613L115.84 67H113.566L113.355 64.2344ZM111 49.9375L114.422 64.3516L114.328 67H112.289L108.645 52.3164L109.113 49.9375H111ZM126.923 67.2344C125.939 67.2344 125.056 67.0781 124.275 66.7656C123.494 66.4453 122.83 66.0039 122.283 65.4414C121.744 64.8789 121.33 64.2266 121.041 63.4844C120.752 62.7344 120.607 61.9375 120.607 61.0938V60.625C120.607 59.6641 120.744 58.7852 121.017 57.9883C121.291 57.1914 121.681 56.5 122.189 55.9141C122.705 55.3281 123.33 54.8789 124.064 54.5664C124.798 54.2461 125.627 54.0859 126.548 54.0859C127.447 54.0859 128.244 54.2344 128.939 54.5313C129.634 54.8281 130.216 55.25 130.685 55.7969C131.162 56.3438 131.521 57 131.763 57.7656C132.005 58.5234 132.127 59.3672 132.127 60.2969V61.7031H122.048V59.4531H128.81V59.1953C128.81 58.7266 128.724 58.3086 128.552 57.9414C128.388 57.5664 128.138 57.2695 127.802 57.0508C127.466 56.832 127.037 56.7227 126.513 56.7227C126.068 56.7227 125.685 56.8203 125.365 57.0156C125.045 57.2109 124.783 57.4844 124.58 57.8359C124.384 58.1875 124.236 58.6016 124.134 59.0781C124.041 59.5469 123.994 60.0625 123.994 60.625V61.0938C123.994 61.6016 124.064 62.0703 124.205 62.5C124.353 62.9297 124.56 63.3008 124.826 63.6133C125.099 63.9258 125.427 64.168 125.81 64.3398C126.201 64.5117 126.642 64.5977 127.134 64.5977C127.744 64.5977 128.31 64.4805 128.834 64.2461C129.365 64.0039 129.822 63.6406 130.205 63.1563L131.845 64.9375C131.58 65.3203 131.216 65.6875 130.755 66.0391C130.302 66.3906 129.755 66.6797 129.115 66.9063C128.474 67.125 127.744 67.2344 126.923 67.2344ZM137.761 49V67H134.374V49H137.761ZM145.938 64.5977C146.352 64.5977 146.72 64.5195 147.04 64.3633C147.36 64.1992 147.61 63.9727 147.79 63.6836C147.977 63.3867 148.075 63.0391 148.083 62.6406H151.259C151.251 63.5313 151.013 64.3242 150.544 65.0195C150.075 65.707 149.446 66.25 148.657 66.6484C147.868 67.0391 146.985 67.2344 146.009 67.2344C145.024 67.2344 144.165 67.0703 143.43 66.7422C142.704 66.4141 142.098 65.9609 141.614 65.3828C141.13 64.7969 140.766 64.1172 140.524 63.3438C140.282 62.5625 140.161 61.7266 140.161 60.8359V60.4961C140.161 59.5977 140.282 58.7617 140.524 57.9883C140.766 57.207 141.13 56.5273 141.614 55.9492C142.098 55.3633 142.704 54.9063 143.43 54.5781C144.157 54.25 145.009 54.0859 145.985 54.0859C147.024 54.0859 147.934 54.2852 148.716 54.6836C149.505 55.082 150.122 55.6523 150.567 56.3945C151.02 57.1289 151.251 58 151.259 59.0078H148.083C148.075 58.5859 147.985 58.2031 147.813 57.8594C147.649 57.5156 147.407 57.2422 147.087 57.0391C146.774 56.8281 146.388 56.7227 145.927 56.7227C145.434 56.7227 145.032 56.8281 144.72 57.0391C144.407 57.2422 144.165 57.5234 143.993 57.8828C143.821 58.2344 143.7 58.6367 143.63 59.0898C143.567 59.5352 143.536 60.0039 143.536 60.4961V60.8359C143.536 61.3281 143.567 61.8008 143.63 62.2539C143.692 62.707 143.809 63.1094 143.981 63.4609C144.161 63.8125 144.407 64.0898 144.72 64.293C145.032 64.4961 145.438 64.5977 145.938 64.5977ZM152.827 60.7891V60.543C152.827 59.6133 152.959 58.7578 153.225 57.9766C153.491 57.1875 153.877 56.5039 154.385 55.9258C154.893 55.3477 155.518 54.8984 156.26 54.5781C157.002 54.25 157.854 54.0859 158.815 54.0859C159.776 54.0859 160.631 54.25 161.381 54.5781C162.131 54.8984 162.76 55.3477 163.268 55.9258C163.784 56.5039 164.174 57.1875 164.44 57.9766C164.705 58.7578 164.838 59.6133 164.838 60.543V60.7891C164.838 61.7109 164.705 62.5664 164.44 63.3555C164.174 64.1367 163.784 64.8203 163.268 65.4063C162.76 65.9844 162.135 66.4336 161.393 66.7539C160.651 67.0742 159.799 67.2344 158.838 67.2344C157.877 67.2344 157.022 67.0742 156.272 66.7539C155.53 66.4336 154.901 65.9844 154.385 65.4063C153.877 64.8203 153.491 64.1367 153.225 63.3555C152.959 62.5664 152.827 61.7109 152.827 60.7891ZM156.202 60.543V60.7891C156.202 61.3203 156.248 61.8164 156.342 62.2773C156.436 62.7383 156.584 63.1445 156.787 63.4961C156.998 63.8398 157.272 64.1094 157.608 64.3047C157.944 64.5 158.354 64.5977 158.838 64.5977C159.307 64.5977 159.709 64.5 160.045 64.3047C160.381 64.1094 160.651 63.8398 160.854 63.4961C161.057 63.1445 161.205 62.7383 161.299 62.2773C161.401 61.8164 161.452 61.3203 161.452 60.7891V60.543C161.452 60.0273 161.401 59.543 161.299 59.0898C161.205 58.6289 161.053 58.2227 160.842 57.8711C160.639 57.5117 160.37 57.2305 160.034 57.0273C159.698 56.8242 159.291 56.7227 158.815 56.7227C158.338 56.7227 157.932 56.8242 157.596 57.0273C157.268 57.2305 156.998 57.5117 156.787 57.8711C156.584 58.2227 156.436 58.6289 156.342 59.0898C156.248 59.543 156.202 60.0273 156.202 60.543ZM170.438 56.9453V67H167.051V54.3203H170.227L170.438 56.9453ZM169.969 60.2148H169.031C169.031 59.332 169.137 58.5195 169.348 57.7773C169.566 57.0273 169.883 56.3789 170.297 55.832C170.719 55.2773 171.238 54.8477 171.855 54.543C172.473 54.2383 173.188 54.0859 174 54.0859C174.562 54.0859 175.078 54.1719 175.547 54.3438C176.016 54.5078 176.418 54.7695 176.754 55.1289C177.098 55.4805 177.363 55.9414 177.551 56.5117C177.738 57.0742 177.832 57.75 177.832 58.5391V67H174.457V58.9141C174.457 58.3359 174.379 57.8906 174.223 57.5781C174.066 57.2656 173.844 57.0469 173.555 56.9219C173.273 56.7969 172.934 56.7344 172.535 56.7344C172.098 56.7344 171.715 56.8242 171.387 57.0039C171.066 57.1836 170.801 57.4336 170.59 57.7539C170.379 58.0664 170.223 58.4336 170.121 58.8555C170.02 59.2773 169.969 59.7305 169.969 60.2148ZM177.516 59.8281L176.309 59.9805C176.309 59.1523 176.41 58.3828 176.613 57.6719C176.824 56.9609 177.133 56.3359 177.539 55.7969C177.953 55.2578 178.465 54.8398 179.074 54.543C179.684 54.2383 180.387 54.0859 181.184 54.0859C181.793 54.0859 182.348 54.1758 182.848 54.3555C183.348 54.5273 183.773 54.8047 184.125 55.1875C184.484 55.5625 184.758 56.0547 184.945 56.6641C185.141 57.2734 185.238 58.0195 185.238 58.9023V67H181.852V58.9023C181.852 58.3164 181.773 57.8711 181.617 57.5664C181.469 57.2539 181.25 57.0391 180.961 56.9219C180.68 56.7969 180.344 56.7344 179.953 56.7344C179.547 56.7344 179.191 56.8164 178.887 56.9805C178.582 57.1367 178.328 57.3555 178.125 57.6367C177.922 57.918 177.77 58.2461 177.668 58.6211C177.566 58.9883 177.516 59.3906 177.516 59.8281ZM193.838 67.2344C192.853 67.2344 191.97 67.0781 191.189 66.7656C190.408 66.4453 189.744 66.0039 189.197 65.4414C188.658 64.8789 188.244 64.2266 187.955 63.4844C187.666 62.7344 187.521 61.9375 187.521 61.0938V60.625C187.521 59.6641 187.658 58.7852 187.931 57.9883C188.205 57.1914 188.595 56.5 189.103 55.9141C189.619 55.3281 190.244 54.8789 190.978 54.5664C191.713 54.2461 192.541 54.0859 193.463 54.0859C194.361 54.0859 195.158 54.2344 195.853 54.5313C196.548 54.8281 197.13 55.25 197.599 55.7969C198.076 56.3438 198.435 57 198.677 57.7656C198.92 58.5234 199.041 59.3672 199.041 60.2969V61.7031H188.963V59.4531H195.724V59.1953C195.724 58.7266 195.638 58.3086 195.466 57.9414C195.302 57.5664 195.052 57.2695 194.716 57.0508C194.38 56.832 193.951 56.7227 193.427 56.7227C192.982 56.7227 192.599 56.8203 192.279 57.0156C191.959 57.2109 191.697 57.4844 191.494 57.8359C191.298 58.1875 191.15 58.6016 191.048 59.0781C190.955 59.5469 190.908 60.0625 190.908 60.625V61.0938C190.908 61.6016 190.978 62.0703 191.119 62.5C191.267 62.9297 191.474 63.3008 191.74 63.6133C192.013 63.9258 192.341 64.168 192.724 64.3398C193.115 64.5117 193.556 64.5977 194.048 64.5977C194.658 64.5977 195.224 64.4805 195.748 64.2461C196.279 64.0039 196.736 63.6406 197.119 63.1563L198.759 64.9375C198.494 65.3203 198.13 65.6875 197.67 66.0391C197.216 66.3906 196.67 66.6797 196.029 66.9063C195.388 67.125 194.658 67.2344 193.838 67.2344ZM204.921 49.9375L204.534 61.7852H201.722L201.323 49.9375H204.921ZM201.23 65.4531C201.23 64.9531 201.402 64.5391 201.745 64.2109C202.097 63.875 202.558 63.707 203.128 63.707C203.706 63.707 204.167 63.875 204.511 64.2109C204.855 64.5391 205.027 64.9531 205.027 65.4531C205.027 65.9375 204.855 66.3477 204.511 66.6836C204.167 67.0195 203.706 67.1875 203.128 67.1875C202.558 67.1875 202.097 67.0195 201.745 66.6836C201.402 66.3477 201.23 65.9375 201.23 65.4531Z" fill="black"/>
<rect x="243" y="88.2028" width="13.4497" height="13.4497" rx="2" transform="rotate(-45 243 88.2028)" fill="#CE6328" fill-opacity="0.6"/>
<mask id="path-3-inside-1_60_154" fill="white">
<path d="M17 45.1924C17 49.8868 13.1944 53.6924 8.5 53.6924C3.80558 53.6924 0 49.8868 0 45.1924C0 40.498 3.80558 36.6924 8.5 36.6924C13.1944 36.6924 17 40.498 17 45.1924Z"/>
</mask>
<path d="M13 45.1924C13 47.6777 10.9853 49.6924 8.5 49.6924V57.6924C15.4036 57.6924 21 52.0959 21 45.1924H13ZM8.5 49.6924C6.01472 49.6924 4 47.6777 4 45.1924H-4C-4 52.0959 1.59644 57.6924 8.5 57.6924V49.6924ZM4 45.1924C4 42.7071 6.01472 40.6924 8.5 40.6924V32.6924C1.59644 32.6924 -4 38.2888 -4 45.1924H4ZM8.5 40.6924C10.9853 40.6924 13 42.7071 13 45.1924H21C21 38.2888 15.4036 32.6924 8.5 32.6924V40.6924Z" fill="#CE6328" fill-opacity="0.6" mask="url(#path-3-inside-1_60_154)"/>
<mask id="path-5-inside-2_60_154" fill="white">
<path d="M305 72.1924C305 76.8868 301.194 80.6924 296.5 80.6924C291.806 80.6924 288 76.8868 288 72.1924C288 67.498 291.806 63.6924 296.5 63.6924C301.194 63.6924 305 67.498 305 72.1924Z"/>
</mask>
<path d="M301 72.1924C301 74.6777 298.985 76.6924 296.5 76.6924V84.6924C303.404 84.6924 309 79.0959 309 72.1924H301ZM296.5 76.6924C294.015 76.6924 292 74.6777 292 72.1924H284C284 79.0959 289.596 84.6924 296.5 84.6924V76.6924ZM292 72.1924C292 69.7071 294.015 67.6924 296.5 67.6924V59.6924C289.596 59.6924 284 65.2888 284 72.1924H292ZM296.5 67.6924C298.985 67.6924 301 69.7071 301 72.1924H309C309 65.2888 303.404 59.6924 296.5 59.6924V67.6924Z" fill="#CE6328" fill-opacity="0.6" mask="url(#path-5-inside-2_60_154)"/>
<rect x="28.8" y="5.69239" width="3.4" height="17" rx="1.7" fill="#DF9F7C"/>
<rect x="22" y="15.8924" width="3.4" height="17" rx="1.7" transform="rotate(-90 22 15.8924)" fill="#DF9F7C"/>
<rect x="239.985" y="5.51544" width="2.6" height="13" rx="1.3" transform="rotate(-45 239.985 5.51544)" fill="#DF9F7C"/>
<rect x="241.823" y="14.7078" width="2.6" height="13" rx="1.3" transform="rotate(-135 241.823 14.7078)" fill="#DF9F7C"/>
<rect x="53.79" y="85.3773" width="2.6799" height="13.3995" rx="1.33995" transform="rotate(-45 53.79 85.3773)" fill="#DF9F7C"/>
<rect x="55.6849" y="94.8522" width="2.6799" height="13.3995" rx="1.33995" transform="rotate(-135 55.6849 94.8522)" fill="#DF9F7C"/>
</svg>
